<?xml version="1.0" standalone="no"?><!DOCTYPE svg PUBLIC "-//W3C//DTD SVG 1.1//EN" "http://www.w3.org/Graphics/SVG/1.1/DTD/svg11.dtd"><svg class="icon" width="200px" height="200.00px" viewBox="0 0 1024 1024" version="1.1" xmlns="http://www.w3.org/2000/svg"><path fill="#333333" d="M356.511 649.27c-171.9 0-311.735-139.449-311.735-310.85S184.611 27.57 356.511 27.57c171.891 0 311.735 139.449 311.735 310.85S528.401 649.27 356.511 649.27z m0-534.177c-123.496 0-223.977 100.179-223.977 223.327 0 123.147 100.48 223.327 223.977 223.327s223.978-100.18 223.978-223.327c-0.001-123.148-100.482-223.327-223.978-223.327zM968.841 973.681c-25.662 25.425-66.42 26.057-91.026 1.393l-334.11-334.629c-24.626-24.653-23.77-65.232 1.883-90.658 25.672-25.426 66.409-26.057 91.036-1.403l334.109 334.638c24.616 24.653 23.76 65.241-1.892 90.659z" /></svg>