<svg xmlns="http://www.w3.org/2000/svg" xmlns:xlink="http://www.w3.org/1999/xlink" viewBox="0 0 106.92 23"><defs><style>.cls-1{fill:#c39902;}.cls-2{fill:url(#未命名的渐变_17);}.cls-3{fill:url(#未命名的渐变_17-2);}.cls-4{fill:url(#未命名的渐变_17-3);}.cls-5{fill:url(#未命名的渐变_17-4);}.cls-6{fill:url(#未命名的渐变_17-5);}.cls-7{fill:url(#未命名的渐变_17-6);}.cls-8{fill:url(#未命名的渐变_17-7);}.cls-9{fill:url(#未命名的渐变_17-8);}.cls-10{fill:url(#未命名的渐变_17-9);}.cls-11{fill:url(#未命名的渐变_17-10);}.cls-12{fill:url(#未命名的渐变_17-11);}.cls-13{fill:url(#未命名的渐变_17-12);}.cls-14{fill:url(#未命名的渐变_17-13);}.cls-15{fill:url(#未命名的渐变_17-14);}.cls-16{fill:url(#未命名的渐变_17-15);}.cls-17{fill:url(#未命名的渐变_17-16);}</style><linearGradient id="未命名的渐变_17" x1="3.77" y1="11.84" x2="20.49" y2="4.21" gradientUnits="userSpaceOnUse"><stop offset="0" stop-color="#07f1b6"/><stop offset="1" stop-color="#3cc0fe"/></linearGradient><linearGradient id="未命名的渐变_17-2" x1="19.63" y1="19.65" x2="24.08" y2="17.53" xlink:href="#未命名的渐变_17"/><linearGradient id="未命名的渐变_17-3" x1="99.51" y1="5.69" x2="95.64" y2="37.27" xlink:href="#未命名的渐变_17"/><linearGradient id="未命名的渐变_17-4" x1="99.13" y1="5.64" x2="95.26" y2="37.22" xlink:href="#未命名的渐变_17"/><linearGradient id="未命名的渐变_17-5" x1="100.66" y1="5.83" x2="96.79" y2="37.41" xlink:href="#未命名的渐变_17"/><linearGradient id="未命名的渐变_17-6" x1="57" y1="0.48" x2="53.14" y2="32.06" xlink:href="#未命名的渐变_17"/><linearGradient id="未命名的渐变_17-7" x1="57.42" y1="0.54" x2="53.55" y2="32.11" xlink:href="#未命名的渐变_17"/><linearGradient id="未命名的渐变_17-8" x1="59.93" y1="0.84" x2="56.06" y2="32.42" xlink:href="#未命名的渐变_17"/><linearGradient id="未命名的渐变_17-9" x1="64.17" y1="1.36" x2="60.3" y2="32.94" xlink:href="#未命名的渐变_17"/><linearGradient id="未命名的渐变_17-10" x1="66.27" y1="1.62" x2="62.4" y2="33.2" xlink:href="#未命名的渐变_17"/><linearGradient id="未命名的渐变_17-11" x1="68.39" y1="1.88" x2="64.52" y2="33.45" xlink:href="#未命名的渐变_17"/><linearGradient id="未命名的渐变_17-12" x1="61.33" y1="1.01" x2="57.46" y2="32.59" xlink:href="#未命名的渐变_17"/><linearGradient id="未命名的渐变_17-13" x1="48.22" y1="-0.59" x2="44.35" y2="30.98" xlink:href="#未命名的渐变_17"/><linearGradient id="未命名的渐变_17-14" x1="39.41" y1="-1.67" x2="35.54" y2="29.91" xlink:href="#未命名的渐变_17"/><linearGradient id="未命名的渐变_17-15" x1="70.47" y1="2.13" x2="66.61" y2="33.71" xlink:href="#未命名的渐变_17"/><linearGradient id="未命名的渐变_17-16" x1="83.69" y1="3.75" x2="79.82" y2="35.33" xlink:href="#未命名的渐变_17"/></defs><title>logo</title><g id="图层_2" data-name="图层 2"><g id="图层_1-2" data-name="图层 1"><path class="cls-1" d="M0,23H6.32c4-4.15,13.81-13.2,25.18-17.39A61.05,61.05,0,0,0,0,23Z"/><path class="cls-2" d="M24.59,4.94s-5.11.37-13.37,4.41l4.93-4L13,0,.87,20.52h0l-.24.4.68-.63C6.51,15.49,15.6,8.24,24.59,4.94ZM11.22,9.35l0,.05h0Z"/><path class="cls-3" d="M26.57,9.67a47.45,47.45,0,0,0-9.92,7L20.37,23h6.2l-4.44-7.51L19.8,16.7h0A27.86,27.86,0,0,1,26.57,9.67Z"/><polygon class="cls-4" points="106.56 9.52 104.75 9.52 104.75 8.12 102.49 9.3 102.49 9.52 95.38 9.52 95.38 8.12 93.18 9.26 93.18 9.52 91.3 9.52 91.3 11.34 106.56 11.34 106.56 9.52"/><polygon class="cls-5" points="105.78 6.08 99.82 6.08 99.82 5.09 97.92 6.08 92.15 6.08 92.15 7.82 105.78 7.82 105.78 6.08"/><polygon class="cls-6" points="102.88 19.2 102.88 17.35 104.98 17.35 106.04 15.84 106.04 12.29 105.37 12.29 104.08 14.12 104.08 15.5 93.92 15.5 93.92 14.12 102.99 14.12 104.28 12.29 91.96 12.29 91.96 17.35 94.33 17.35 91.76 21.02 94.14 21.02 96.72 17.35 100.92 17.35 100.92 21.02 105.83 21.02 106.92 19.2 102.88 19.2"/><polygon class="cls-7" points="57.09 5.2 54.9 8.31 54.9 9.16 57.09 9.16 57.09 5.2"/><rect class="cls-8" x="54.9" y="10.28" width="2.19" height="3.81"/><polygon class="cls-9" points="59.42 9.16 57.82 9.16 57.82 16.13 59.42 13.86 59.42 9.16"/><polygon class="cls-10" points="62.17 16.35 63.63 14.28 63.63 9.16 62.17 9.16 62.17 16.35"/><rect class="cls-11" x="63.91" y="5.54" width="1.89" height="15.26"/><polygon class="cls-12" points="66.48 15.9 67.92 14.03 67.92 9.16 66.48 9.16 66.48 15.9"/><polygon class="cls-13" points="59.71 16.67 56.65 21.02 58.89 21.02 61.58 17.19 61.58 5.3 59.71 5.3 59.71 16.67"/><path class="cls-14" d="M57.09,15.23H54.9v2.41L53.8,19.2H47.48l3.82-5.45h0V10.28h-2V15l-2.12,3V7.42h4.56V5.61H39c-1,0-1.11-.52-1.11-.52L36.26,7.42h4.49V19.2H37.3c-1,0-1.12-.54-1.12-.54L34.53,21H54.4l2.69-3.82Zm-11.82,4H42.7V7.42h2.57Z"/><polygon class="cls-15" points="38.63 10.28 36.67 10.28 36.67 17.96 38.63 15.18 38.63 10.28"/><rect class="cls-16" x="68.2" y="5.3" width="1.87" height="15.5"/><path class="cls-17" d="M81.51,19.2V17.33H87l1-1.4V6.72h-.67L86,8.55v2.52H81.51V8.55h3.4l1.28-1.83H81.51V5.3h-2V6.72H73.18V17.33h6.37V21H90.66l1.28-1.82Zm0-6.28H86V15.5H81.51Zm-2,2.58H75.14V12.92h4.41Zm0-4.43H75.14V8.55h4.41Z"/></g></g></svg>