<svg xmlns="http://www.w3.org/2000/svg" viewBox="0 0 25 38.5"><defs><style>.cls-1{fill:#526370;}.cls-2{fill:none;}</style></defs><title>jingcai</title><g id="图层_2" data-name="图层 2"><g id="图层_1-2" data-name="图层 1"><path class="cls-1" d="M0,21.85H5c3.16-3.29,11-10.48,20-13.8A48.45,48.45,0,0,0,0,21.85Z"/><path class="cls-1" d="M19.51,7.52s-4.05.29-10.6,3.5l3.91-3.17L10.3,3.6.69,19.88h0L.5,20.2,1,19.7C5.17,15.89,12.38,10.13,19.51,7.52ZM8.91,11l0,0h0Z"/><path class="cls-1" d="M21.09,11.27a37.82,37.82,0,0,0-7.88,5.58l3,5h4.92l-3.52-6-1.86,1h0A22,22,0,0,1,21.09,11.27Z"/><rect class="cls-2" width="25" height="25"/><path class="cls-1" d="M1.65,33H8.79v3H8.08v-.37H6.83V37c0,.43.2.65.59.65H8.59c.42,0,.66-.16.74-.48A7.18,7.18,0,0,0,9.5,36c.23.09.49.19.78.28a9,9,0,0,1-.23,1.19,1.15,1.15,0,0,1-1.25.86H7.27A1.1,1.1,0,0,1,6,37V35.71H4.21Q4,37.92.65,38.5c-.14-.25-.3-.49-.47-.74,2.08-.28,3.16-1,3.24-2H2.36v.37H1.65ZM.26,31.62H3a7.9,7.9,0,0,0-.54-.74l.64-.35c.33.42.6.79.79,1.09H6.53c.23-.36.45-.73.65-1.12H.67v-.63H5c-.14-.24-.3-.49-.47-.74l.71-.32c.21.33.43.68.64,1.06h4v.63H7.21l.69.33-.53.79h2.86v.63H.26Zm7.82,2H2.36v1.47H8.08Z"/><path class="cls-1" d="M10.58,35.13A8.89,8.89,0,0,0,12.73,33a5,5,0,0,0-.4-1.24,8.75,8.75,0,0,1-1.2,1,4.77,4.77,0,0,0-.51-.53A8.21,8.21,0,0,0,12,31.05a6.66,6.66,0,0,0-1.2-1.43l.59-.4a7.07,7.07,0,0,1,1.11,1.24,11.06,11.06,0,0,0,.79-1.15l.63.39a14.64,14.64,0,0,1-1,1.41,10,10,0,0,1,.83,4.72c0,1.57-.54,2.35-1.62,2.35-.3,0-.69,0-1.16,0a6.61,6.61,0,0,0-.13-.84,6.75,6.75,0,0,0,1.19.12c.64,0,1-.52,1-1.57a16.81,16.81,0,0,0-.08-2,9.93,9.93,0,0,1-1.76,1.79A5.2,5.2,0,0,0,10.58,35.13ZM14,32.3h3v-.7H14.49V31H17v-.69H14.23v-.6H17v-.88h.75v.88h2.8v.6h-2.8V31h2.45v.58H17.72v.7h3v.61H14Zm1.42,6.15h-.73V33.54h5.24v3.73a1,1,0,0,1-1.08,1.09H17.28a5.11,5.11,0,0,0-.15-.74c.61,0,1.09.06,1.46.06s.61-.17.61-.5v-.47H15.42Zm3.78-4.3H15.42v.69H19.2Zm-3.78,2H19.2v-.69H15.42Z"/></g></g></svg>