<svg xmlns="http://www.w3.org/2000/svg" xmlns:xlink="http://www.w3.org/1999/xlink" viewBox="0 0 25 38.5"><defs><style>.cls-1{fill:url(#未命名的渐变_6);}.cls-2{fill:url(#未命名的渐变_6-2);}.cls-3{fill:url(#未命名的渐变_6-3);}.cls-4{fill:none;}</style><linearGradient id="未命名的渐变_6" x1="7.62" y1="31.33" x2="7.32" y2="37.7" gradientUnits="userSpaceOnUse"><stop offset="0" stop-color="#07f1b6"/><stop offset="1" stop-color="#3cc0fe"/></linearGradient><linearGradient id="未命名的渐变_6-2" x1="17.82" y1="31.81" x2="17.53" y2="38.18" xlink:href="#未命名的渐变_6"/><linearGradient id="未命名的渐变_6-3" x1="13.63" y1="8.43" x2="9.63" y2="22.43" xlink:href="#未命名的渐变_6"/></defs><title>home-hover</title><g id="图层_2" data-name="图层 2"><g id="图层_1-2" data-name="图层 1"><path class="cls-1" d="M2.38,37.08H6.9V34.27H3.18v-.75H6.9V31.3H2.79v-.74h9.05v.74H7.77v2.22h3.72v.75H7.77v2.81h4.52v.72H2.38Zm4.13-8,.75-.37a15,15,0,0,1,.9,1.38l-.8.41C7,29.88,6.71,29.4,6.51,29.11Z"/><path class="cls-2" d="M12.7,37.72a8.8,8.8,0,0,0,3.56-1.34,3.24,3.24,0,0,0,1.12-2.72V32.57h.82V33.7a5.51,5.51,0,0,1-.26,1.75,51,51,0,0,1,4.66,2.22l-.52.73a46.78,46.78,0,0,0-4.45-2.29,3.17,3.17,0,0,1-.92,1,9.38,9.38,0,0,1-3.48,1.38A7.79,7.79,0,0,0,12.7,37.72ZM14,31.31h2.88c.09-.34.19-.78.31-1.31H12.89v-.72h9.73V30H18.13c-.14.51-.28.94-.4,1.31h3.82V36h-.82V32H14.86v4H14Z"/><path class="cls-3" d="M22.4,11.92,13,4a.61.61,0,0,0-.79,0L2.62,11.9a.58.58,0,0,0-.24.48A.6.6,0,0,0,3,13H5.13v6.24a2.63,2.63,0,0,0,2.63,2.62h2V17.56a.9.9,0,0,1,.9-.9h3.6a.9.9,0,0,1,.9.9v4.29h3.05a1.62,1.62,0,0,0,1.62-1.61V13H22a.61.61,0,0,0,.46-.22A.6.6,0,0,0,22.4,11.92Z"/><rect class="cls-4" width="25" height="25"/></g></g></svg>