<svg xmlns="http://www.w3.org/2000/svg" xmlns:xlink="http://www.w3.org/1999/xlink" viewBox="0 0 700 700">
<style type="text/css">
	.st0{
		fill:url(#SVGID_1_);
	}
	.st1{
		fill:#07F1B6;
	}
	#kuozhang1{
		animation: kuozhang1 1s;
		animation-iteration-count:infinite;
	}
	#kuozhang2{
		animation: kuozhang2 1s;
		animation-iteration-count:infinite;
	}
	.st2{
		fill:#55FF00;
		animation:xintiao 4s;
		animation-iteration-count:infinite;
	}
	@keyframes xintiao{ 
		0%{opacity:0.3; stroke:rgba(255,255,255,0); stroke-width: 0px;} 
		50%{opacity:1; stroke:rgba(255,255,255,0.5); stroke-width: 2px;} 
		100%{opacity:0.3; stroke:rgba(255,255,255,0); stroke-width: 0px;}
	}
	@keyframes kuozhang1{ 
		0%{opacity:0;} 
		33%{opacity:1;} 
		66%{opacity:1;} 
		100%{opacity:0;}
	}
	@keyframes kuozhang2{ 
		0%{opacity:0;} 
		33%{opacity:0;} 
		66%{opacity:1;} 
		100%{opacity:1;}
	}
</style>
<linearGradient id="SVGID_1_" gradientUnits="userSpaceOnUse" x1="407.722" y1="326.7194" x2="91.7556" y2="437.2518">
	<stop  offset="0" style="stop-color:#07F1B6"/>
	<stop  offset="1" style="stop-color:#3CC0FE"/>
</linearGradient>
<path class="st0" d="M368.3,463.3c-46-53-207.1-49.4-209.9-65.9V277.1c2.7-23.3,132.1-13.1,199.8-75.7
	c68.4-63.2,94.4,57.7,94.4,140.4C452.7,424.6,414.7,516.8,368.3,463.3L368.3,463.3z M84.7,363.2v-61c0-13.5,11-24.4,24.5-24.4H134
	v109.7h-24.8C95.6,387.6,84.7,376.7,84.7,363.2L84.7,363.2z M187.3,431.6c17.3,3.4,30.2,8.8,30.2,8.8s5.5,15.2,20.5,36.3
	c18,25.4,40.5,57.7,14.9,57.7c-8.2,0-15.4,0.2-22.3,0.2c-21.1,0-33.4-15.1-53.7-49.6c-23-39.2-17.3-59.3-17.3-59.3
	S170.1,428.2,187.3,431.6L187.3,431.6z M187.3,431.6"/>
<path id="kuozhang1" class="st1" d="M553.6,331.6c0-36.5-19.4-68.3-48.3-85.5c-1.4-0.8-4.5-1.9-6.6-1.9c-6.4,0-11.6,5.4-11.6,11.8
	c0,4.3,2.3,8.3,5.8,10.3c22.3,12.8,37.4,37.4,37.4,65.4c0,28.5-15.5,53.1-38.6,66.1c-3.3,1.9-5.6,6-5.6,10.1
	c0,6.6,5.2,11.8,11.6,11.8c2.7,0,6-1.6,6-1.6C533.7,401,553.6,368.7,553.6,331.6L553.6,331.6z"/>
<path id="kuozhang2" class="st1" d="M540.3,186.2c-2.1-1.4-4.3-2.3-7-2.3c-6.4,0-11.4,5.4-11.4,11.6c0,4.7,2.7,8.5,6.6,10.5
	c42.5,25.2,71,71.9,71,125.5c0,53.5-28.5,100.3-70.8,125.5c-3.7,1.9-7,6-7,10.7c0,6.6,5.2,11.6,11.4,11.6c2.5,0,4.7-1,6.8-2.3
	c49.3-29.3,82.2-83.4,82.2-145.6C622.3,269.6,589.1,215.5,540.3,186.2L540.3,186.2z"/>
<circle class="st2" cx="109.3" cy="305" r="10.7"/>
</svg>
