<svg xmlns="http://www.w3.org/2000/svg" xmlns:xlink="http://www.w3.org/1999/xlink" viewBox="0 0 700 700">
<style type="text/css">
	.st0{
			fill:url(#SVGID_1_);
			transform-origin: 350px 350px;
            animation:nei2 3s;
            animation-iteration-count:infinite;
		} 
		.st1{
			fill:url(#SVGID_2_);
			transform-origin: 350px 350px;
            animation:nei 3s;
            animation-iteration-count:infinite;
		} 
		.st2{
			fill:url(#SVGID_3_);
			transform-origin: 350px 350px;
            animation:nei2 3s;
            animation-iteration-count:infinite;
		} 
		.st3{
			fill:url(#SVGID_4_);
			transform-origin: 350px 350px;
            animation:nei2 30s;
            animation-iteration-count:infinite;
		} 
		@keyframes nei{ 
			from{transform: rotate(360deg);} 
			to{transform: rotate(0deg);}
		}
		@keyframes nei2{ 
			from{transform: rotate(0deg);} 
			to{transform: rotate(360deg);}
		}
</style>
<linearGradient id="SVGID_1_" gradientUnits="userSpaceOnUse" x1="554.1111" y1="237" x2="346.9523" y2="237">
	<stop  offset="0" style="stop-color:#07F1B6;stop-opacity:0.3"/>
	<stop  offset="0.8925" style="stop-color:#3CC0FE;stop-opacity:0"/>
</linearGradient>
<path class="st0" d="M334,108v241c0,9.4,7.6,17,17,17h241C592,223.5,476.5,108,334,108z"/>
<linearGradient id="SVGID_2_" gradientUnits="userSpaceOnUse" x1="61.1101" y1="352" x2="638.8899" y2="352" gradientTransform="matrix(1 0 0 -1 0 702)">
	<stop  offset="0" style="stop-color:#07F1B6"/>
	<stop  offset="1" style="stop-color:#3CC0FE"/>
</linearGradient>
<path class="st1" d="M350,646.9c-79.3,0-153.9-30.9-209.9-87s-87-130.6-87-209.9c0-79.3,30.9-153.9,87-209.9s130.6-87,209.9-87
	c79.3,0,153.9,30.9,209.9,87s87,130.6,87,209.9c0,79.3-30.9,153.9-87,209.9S429.3,646.9,350,646.9z M350,85.1
	C203.9,85.1,85.1,203.9,85.1,350c0,146.1,118.8,264.9,264.9,264.9c146.1,0,264.9-118.8,264.9-264.9C614.9,203.9,496.1,85.1,350,85.1
	z"/>
<linearGradient id="SVGID_3_" gradientUnits="userSpaceOnUse" x1="281.6108" y1="426" x2="542.3892" y2="426" gradientTransform="matrix(-1 0 0 -1 880 776)">
	<stop  offset="0" style="stop-color:#07F1B6"/>
	<stop  offset="1" style="stop-color:#3CC0FE"/>
</linearGradient>
<path class="st2" d="M350,334h236c8.8,0,16,7.2,16,16v0c0,8.8-7.2,16-16,16H350c-8.8,0-16-7.2-16-16v0C334,341.2,341.2,334,350,334z
	"/>
<linearGradient id="SVGID_4_" gradientUnits="userSpaceOnUse" x1="264.6108" y1="255" x2="525.3892" y2="255" gradientTransform="matrix(6.123234e-17 1 -1 6.123234e-17 605 -163)">
	<stop  offset="0" style="stop-color:#07F1B6"/>
	<stop  offset="1" style="stop-color:#3CC0FE"/>
</linearGradient>
<path class="st3" d="M334,350V114c0-8.8,7.2-16,16-16h0c8.8,0,16,7.2,16,16v236c0,8.8-7.2,16-16,16h0C341.2,366,334,358.8,334,350z"
	/>
</svg>
