<svg xmlns="http://www.w3.org/2000/svg" viewBox="0 0 25 38.5"><defs><style>.cls-1{fill:#526370;}.cls-2{fill:none;}</style></defs><title>zixun</title><g id="图层_2" data-name="图层 2"><g id="图层_1-2" data-name="图层 1"><path class="cls-1" d="M17.85,3.53H7.11a2.72,2.72,0,0,0-2.7,2.73V18.74a2.72,2.72,0,0,0,2.7,2.73H17.89a2.72,2.72,0,0,0,2.7-2.73V6.22A2.75,2.75,0,0,0,17.85,3.53Zm1.89,14.65a2.44,2.44,0,0,1-2.42,2.44H7.68a2.44,2.44,0,0,1-2.42-2.44V6.78A2.43,2.43,0,0,1,7.68,4.34h9.6a2.47,2.47,0,0,1,2.46,2.41Z"/><path class="cls-1" d="M4.89,31a5.65,5.65,0,0,0,.39.69c-.8.58-1.64,1.21-2.51,1.88l-.53-.66C3.19,32.28,4.08,31.64,4.89,31Zm2.76,3.62a7.94,7.94,0,0,1-.15,1.62c1.54.48,3,1,4.42,1.5l-.43.72c-1.28-.51-2.71-1-4.28-1.58-.45.78-1.9,1.32-4.33,1.62a6.82,6.82,0,0,0-.44-.77c2.24-.19,3.6-.59,4.06-1.21a3.28,3.28,0,0,0,.36-1.9ZM3.08,28.88c.58.35,1.15.71,1.7,1.09l-.52.61c-.49-.38-1-.76-1.63-1.17Zm.64,4.68h7.06v3.19H10v-2.5H4.51v2.5H3.72ZM5,32.88c2-.5,3.13-1.35,3.3-2.54H6.71a8.25,8.25,0,0,1-.82,1.3c-.21-.14-.44-.28-.68-.42a6.19,6.19,0,0,0,1.35-2.51l.77.18c-.11.28-.21.55-.32.81h4.81v.61l-.69,1.33-.74-.3.54-1H9.12a6.13,6.13,0,0,1-.18.61,5,5,0,0,0,3.28,1.92c-.19.25-.36.49-.51.71a5.64,5.64,0,0,1-3.08-1.95,5.23,5.23,0,0,1-3.08,1.89A7.76,7.76,0,0,0,5,32.88Z"/><path class="cls-1" d="M15.88,35.85c.06.3.13.57.2.82-.53.34-1,.68-1.48,1a3.89,3.89,0,0,0-.56.58l-.67-.65a1.32,1.32,0,0,0,.39-1V32.91H12.59v-.72h2v4.59ZM13.49,29c.68.64,1.21,1.18,1.61,1.62l-.7.55a19.74,19.74,0,0,0-1.51-1.68Zm1.67,4.09h1.9V30H15.29v-.72H20.9v3c0,2.59.12,4.18.52,4.76.09.14.18.22.28.22s.15-.11.18-.31c.05-.5.1-1,.13-1.6l.75.24c-.05.67-.11,1.23-.16,1.7-.11.71-.34,1.07-.7,1.07a1.44,1.44,0,0,1-1.12-.76c-.51-.79-.73-2.46-.68-5V30H17.87v3h1.88v.72H17.87v4.64h-.81V33.8h-1.9Z"/><rect class="cls-2" width="25" height="25"/><path class="cls-1" d="M7.88,7.75h6.43a.41.41,0,0,1,.41.42.43.43,0,0,1-.41.43H7.88a.41.41,0,0,1-.4-.43A.41.41,0,0,1,7.88,7.75Z"/><path class="cls-1" d="M17.1,16.8H7.88a.43.43,0,0,1,0-.85H17.1a.41.41,0,0,1,.4.42A.43.43,0,0,1,17.1,16.8Z"/><path class="cls-1" d="M17.1,12.7H7.88a.41.41,0,0,1-.4-.43.43.43,0,0,1,.4-.42H17.1a.43.43,0,0,1,0,.85Z"/></g></g></svg>