<svg xmlns="http://www.w3.org/2000/svg" viewBox="0 0 24 24"><defs><style>.cls-1{fill:none;}.cls-2{fill:#e5b362;}</style></defs><title>资源 25</title><g id="图层_2" data-name="图层 2"><g id="图层_1-2" data-name="图层 1"><rect class="cls-1" width="24" height="24"/><path class="cls-2" d="M20.7,5.6h-.8a3.35,3.35,0,0,1-1,0V5.3h-.2V4.7h-.1v.7c-.1-.1-.1-.2-.3-.2H14.9c-.2,0-.3-.1-.5-.2V4.7a.75.75,0,0,0-.1.5c-.3,0-.5.2-.8.2a.9.9,0,0,0-.1-.5c.1-.1.3-.1.4-.2a2.46,2.46,0,0,0-.1-1.2,4.05,4.05,0,0,0-.9-.5h-.5a1.56,1.56,0,0,0-.8.6,1.6,1.6,0,0,0-.1,1.5l-.1.1a.92.92,0,0,0-1,.1,2.48,2.48,0,0,0-.8,1.4,6.55,6.55,0,0,0,0,1.4,1.27,1.27,0,0,0-.6.1c-.1,0-.2,0-.2.1a4.1,4.1,0,0,1-.1,1.1c0,.2-.1.5-.1.7.2,0,.4.1.6.1-.1.1-.3.1-.4.2a9.15,9.15,0,0,0,.1,1.7l-.3.3c-.1.2,0,.3,0,.5a1.27,1.27,0,0,0,.1.6V14a4.87,4.87,0,0,0-.1,1.2v.6c-.2.5-.6.9-.8,1.4-.1.2,0,.5-.2.7a1.91,1.91,0,0,0-.3.8c0,.2.1.4.1.6L7,20.5a1.1,1.1,0,0,0,0,.8c.1,0,.2.1.4.1h.5a1.09,1.09,0,0,0,.5-.1,1.27,1.27,0,0,0-.1-.6,2.62,2.62,0,0,1,.2-1.5l.3-.3c.1-.2.1-.4.2-.6a5.94,5.94,0,0,1,.4-.8V17a.55.55,0,0,1,.3-.5c.2-.2.2-.4.5-.6.1-.1.1-.3.2-.4a1.42,1.42,0,0,1,.2-.6,2,2,0,0,1,.4-.8.76.76,0,0,0,.2-.5c.1.1.1.3.3.5s.4,0,.4.2l.5,1c.1.2.4.2.6.2.1.2.3.2.2.4s-.2.4-.2.6a3.18,3.18,0,0,0,.2,1.4c0,.2.2.4.2.6a3.4,3.4,0,0,1-.1,1,3.59,3.59,0,0,0-.2,1.1c.3.2.6,0,1,.1a3.75,3.75,0,0,0,1.1.1,1.7,1.7,0,0,0,.7-.1v-.4c-.2-.2-.5-.2-.7-.4s-.3-.4-.5-.6,0-.4,0-.6a2,2,0,0,1,.1-.8c.1-.2,0-.5,0-.7a2.2,2.2,0,0,1,.1-.8c0-.4.1-.7.1-1.1a1.27,1.27,0,0,0-.1-.6c0-.2-.2-.3-.3-.5A6.78,6.78,0,0,0,13.4,12a1,1,0,0,1-.2-.9c.1,0,.3.1.4.1.1-.2.3-.4.3-.6V9.9c0-.3.1-.6,0-.8s-.2-.3-.4-.4c0-.1.1-.3.1-.4.5.2.9.6,1.4.6.1,0,.3.1.4,0a1.76,1.76,0,0,0,.5-.4c.3-.2.3-.7.4-1,.1,0,.2-.1.3-.1a1.41,1.41,0,0,1-.1-.9c.1-.2.3-.3.4-.4s.2-.2.4-.1h1.3A6.55,6.55,0,0,1,20,6h1c-.3,0-.3-.3-.3-.4ZM15.1,7.2a.76.76,0,0,1-.2-.5V6.6h.6A5.92,5.92,0,0,1,15.1,7.2ZM15,6.6c.1-.1.2-.2.2-.3h.3v.3Z"/><path class="cls-2" d="M20.7,11.5H17.5v-.9h4.1a.87.87,0,0,0-.6-.8,1.7,1.7,0,0,0-.7-.1H17.6a1,1,0,0,0-.9.9v.9a1,1,0,0,0,.9.9h3.2v.9H16.7c.1.3.2.6.5.7a1.08,1.08,0,0,0,.8.2h2.9a1,1,0,0,0,.9-.9v-.9C21.6,12,21.2,11.5,20.7,11.5ZM3.3,10.6H7a.9.9,0,0,0-.9-.9H3.3a.9.9,0,0,0-.9.9v2.7a.9.9,0,0,0,.9.9H6a.9.9,0,0,0,.9-.9H3.3Z"/></g></g></svg>