<svg xmlns="http://www.w3.org/2000/svg" viewBox="0 0 25 38.5"><defs><style>.cls-1{fill:#526370;}.cls-2{fill:none;}</style></defs><title>mine</title><g id="图层_2" data-name="图层 2"><g id="图层_1-2" data-name="图层 1"><path class="cls-1" d="M6,37.25a15.27,15.27,0,0,0,2.63-1.54,12.49,12.49,0,0,1-.55-3.13H5.46v1.61l2.08-.36c0,.29,0,.55,0,.77L5.46,35v2.29a1,1,0,0,1-1.11,1.13L3,38.38a4.36,4.36,0,0,0-.17-.83,11.46,11.46,0,0,0,1.33.1.42.42,0,0,0,.48-.47v-2l-2,.38-.2-.84,2.19-.35V32.58H2.45v-.72H4.63V30.38l-1.73.21a5.59,5.59,0,0,0-.22-.79A41.06,41.06,0,0,0,7,29.22l.24.78c-.51.09-1.1.18-1.76.27v1.59h2.6C8,31.06,8,30.09,7.91,29h.85c0,1.05.06,2,.11,2.9h3.71v.72H8.91a14.27,14.27,0,0,0,.42,2.6,11.13,11.13,0,0,0,1.94-2.13l.73.47A14.27,14.27,0,0,1,9.6,36a4.16,4.16,0,0,0,.69,1.14,1.35,1.35,0,0,0,.9.58c.14,0,.24-.1.3-.32a12.07,12.07,0,0,0,.3-1.65,5.45,5.45,0,0,0,.78.29,14.67,14.67,0,0,1-.36,1.69,1,1,0,0,1-1,.8,2.25,2.25,0,0,1-1.66-1,5,5,0,0,1-.61-1,15.23,15.23,0,0,1-2.39,1.39A3.73,3.73,0,0,0,6,37.25Zm3.54-7.42.53-.51c.6.43,1.21.92,1.83,1.45l-.62.61C10.76,30.84,10.18,30.32,9.57,29.83Z"/><path class="cls-1" d="M13.29,30.54h1c.25-.6.45-1.14.62-1.62l.85.23c-.21.5-.42,1-.62,1.39h2v7.77h-.81v-.76H14.1v.83h-.81Zm3.1.73H14.1v2.37h2.29ZM14.1,36.82h2.29V34.35H14.1Zm3.25-4.28A14,14,0,0,0,19,28.92l.85.2c-.17.49-.35.95-.53,1.39h3.27q-.12,5-.2,6.32a1.46,1.46,0,0,1-1.67,1.53c-.62,0-1.25,0-1.88-.06a6.1,6.1,0,0,0-.17-.87h0a14.34,14.34,0,0,0,1.86.14.9.9,0,0,0,1-.94c.07-1,.13-2.77.16-5.39H19a14.75,14.75,0,0,1-.91,1.66A4.65,4.65,0,0,0,17.35,32.54Zm.9.66.62-.44c.75.86,1.35,1.6,1.79,2.22l-.75.51A23.08,23.08,0,0,0,18.25,33.2Z"/><rect class="cls-2" width="25" height="25"/><path class="cls-1" d="M21.49,19.88a8.9,8.9,0,0,0-.24-1c-.1-.32-.22-.64-.35-.95s-.28-.6-.44-.9a9.13,9.13,0,0,0-.53-.84c-.19-.27-.4-.53-.61-.78s-.45-.48-.69-.71a9.51,9.51,0,0,0-.76-.64c-.12-.09-.24-.19-.37-.27a1.07,1.07,0,0,0-.27-.16.41.41,0,0,0-.52.52.65.65,0,0,0,.25.27l.37.27a9.45,9.45,0,0,1,.77.65,8.47,8.47,0,0,1,1.27,1.53,8.75,8.75,0,0,1,.9,1.78A8.33,8.33,0,0,1,20.66,20a.8.8,0,0,1-.16.63.78.78,0,0,1-.59.27H4.24a.74.74,0,0,1-.58-.27A.77.77,0,0,1,3.49,20a8.87,8.87,0,0,1,3.75-5.65A8.53,8.53,0,0,1,11.34,13c.4,0,.79,0,1.18-.08a4.91,4.91,0,0,0,4.42-4.74V8.07a4.85,4.85,0,1,0-7.1,4.27,9.62,9.62,0,0,0-7.18,7.54,1.61,1.61,0,0,0,1.58,1.91H19.91A1.61,1.61,0,0,0,21.49,19.88ZM8.09,8.07a4,4,0,1,1,4,4A4,4,0,0,1,8.09,8.07Z"/></g></g></svg>