<svg xmlns="http://www.w3.org/2000/svg" viewBox="0 0 25 38.5"><defs><style>.cls-1{fill:none;}.cls-2{fill:#526370;}</style></defs><title>youhui</title><g id="图层_2" data-name="图层 2"><g id="图层_1-2" data-name="图层 1"><rect class="cls-1" width="25" height="25"/><path class="cls-2" d="M2.27,33.58A14.91,14.91,0,0,0,4.66,29l.82.27a22.34,22.34,0,0,1-1.1,2.5V38.5H3.61V33.07a12.32,12.32,0,0,1-1,1.38Zm2.82-2H7.3c0-.74,0-1.61,0-2.6h.81c0,1,0,1.84,0,2.6h4.06v.71H9.4v4.57c0,.37.19.55.59.55h.66a.67.67,0,0,0,.74-.66c0-.37.1-.87.13-1.51l.83.32c0,.56-.12,1-.19,1.49a1.34,1.34,0,0,1-.45.87,1.59,1.59,0,0,1-1,.23H9.86a1.43,1.43,0,0,1-1-.27,1.21,1.21,0,0,1-.29-1V32.3h-.5a8.44,8.44,0,0,1-2.79,6.19c-.19-.22-.39-.43-.61-.64A7.41,7.41,0,0,0,7.26,32.3H5.09ZM9.6,29.13a17.38,17.38,0,0,1,1.81,1.24,6.31,6.31,0,0,0-.53.63,18.48,18.48,0,0,0-1.73-1.33Z"/><path class="cls-2" d="M13.71,35.87l.71.27a13.67,13.67,0,0,1-1,2c-.22-.13-.45-.25-.68-.37A8.81,8.81,0,0,0,13.71,35.87Zm6.51-1.42.54-.4c.71.57,1.33,1.1,1.87,1.58L22,36.1c-.25-.26-.51-.51-.78-.76q-2.64,0-8.25.2l-.06-.72c1.51,0,3,0,4.44,0V34H14.46v.24h-.72V31h3.63v-.68H12.93v-.62h4.44V28.9h.71v.82h4.44v.62H18.08V31h3.63v3H18.08v.79l2.52,0Zm-5.76-2.2h2.91v-.67H14.46Zm0,1.2h2.91v-.67H14.46Zm.7,2.44h.77V37c0,.4.23.6.7.6h2.13c.47,0,.74-.15.8-.44a6.47,6.47,0,0,0,.14-1l.75.29a7.71,7.71,0,0,1-.18.93c-.12.57-.58.85-1.37.85H16.43c-.85,0-1.27-.4-1.27-1.21Zm1.77,0,.55-.39a12.36,12.36,0,0,1,1.2,1.17l-.61.47C17.73,36.71,17.35,36.29,16.93,35.87ZM21,31.58H18.08v.67H21Zm0,1.87v-.67H18.08v.67Zm-.19,2.94.57-.4c.37.38.82.89,1.35,1.52l-.64.45C21.77,37.52,21.34,37,20.81,36.39Z"/><rect class="cls-1" x="4.28" y="8.83" width="7.84" height="3.28"/><rect class="cls-1" x="5.41" y="12.86" width="6.71" height="8.24"/><rect class="cls-1" x="12.87" y="12.86" width="6.7" height="8.24"/><rect class="cls-1" x="12.87" y="8.83" width="7.84" height="3.28"/><path class="cls-2" d="M21.47,9.28a1.16,1.16,0,0,0-1.12-1.2H18.47a2.86,2.86,0,0,0,.83-2,2,2,0,0,0-2.13-2.16c-2.05,0-3.83,2.34-4.64,3.66C11.73,6.21,10,3.87,7.89,3.87A2,2,0,0,0,5.77,6a2.89,2.89,0,0,0,.82,2.05H4.65a.8.8,0,0,0-.21.05,1.17,1.17,0,0,0-.91,1.15v3.58H4.66v7.79a1.17,1.17,0,0,0,1.13,1.2H19.23a1.16,1.16,0,0,0,1.12-1.2V12.86h1.12V9.28Zm-8-1.83c.78-1.21,1.86-2.73,3.39-2.92a2.22,2.22,0,0,1,.89,0,1.11,1.11,0,0,1,.77.94,2.18,2.18,0,0,1-.34,1.61,2.34,2.34,0,0,1-1.68,1H13.07l.1-.17ZM6.54,5.52a1.14,1.14,0,0,1,.77-.94,2.27,2.27,0,0,1,.9,0c1.52.19,2.61,1.71,3.39,2.92l.29.46.11.17H8.57a2.34,2.34,0,0,1-1.68-1A2.19,2.19,0,0,1,6.54,5.52ZM12.07,21H5.51V13h6.56Zm0-8.89H4.38V8.93h7.69ZM19.49,21H12.93V13h6.56Zm1.13-8.89H12.93V8.93h7.69Z"/></g></g></svg>