<svg xmlns="http://www.w3.org/2000/svg" xmlns:xlink="http://www.w3.org/1999/xlink" viewBox="0 0 81.33 127.26"><defs><linearGradient id="未命名的渐变_221" x1="40.67" y1="4.62" x2="40.67" y2="117.13" gradientUnits="userSpaceOnUse"><stop offset="0" stop-color="#a4324d"/><stop offset="0" stop-color="#ba425c"/><stop offset="0.01" stop-color="#e05c75"/><stop offset="0.02" stop-color="#f76c84"/><stop offset="0.02" stop-color="#ff728a"/><stop offset="0.04" stop-color="#f8617e"/><stop offset="0.09" stop-color="#e93b61"/><stop offset="0.13" stop-color="#de204d"/><stop offset="0.17" stop-color="#d70f40"/><stop offset="0.2" stop-color="#d5093c"/><stop offset="0.61" stop-color="#cc093c"/><stop offset="1" stop-color="#bf093c"/></linearGradient><linearGradient id="未命名的渐变_212" x1="40.67" y1="4.03" x2="40.67" y2="122.26" gradientUnits="userSpaceOnUse"><stop offset="0" stop-color="#b52b57"/><stop offset="0" stop-color="#c54c70"/><stop offset="0.01" stop-color="#de8096"/><stop offset="0.01" stop-color="#f0a5b2"/><stop offset="0.02" stop-color="#fbbdc3"/><stop offset="0.02" stop-color="#ffc5c9"/><stop offset="0.09" stop-color="#fbacae"/><stop offset="0.15" stop-color="#f89c9d"/><stop offset="0.2" stop-color="#f79797"/><stop offset="1" stop-color="#f79797"/></linearGradient><linearGradient id="未命名的渐变_285" x1="0.83" y1="4.89" x2="0.83" gradientUnits="userSpaceOnUse"><stop offset="0" stop-color="#b83000"/><stop offset="0.12" stop-color="#ba3103"/><stop offset="0.21" stop-color="#c1340d"/><stop offset="0.3" stop-color="#cd391e"/><stop offset="0.39" stop-color="#de4036"/><stop offset="0.46" stop-color="#f34954"/><stop offset="0.5" stop-color="#ff4e65"/><stop offset="0.54" stop-color="#f34954"/><stop offset="0.61" stop-color="#de4036"/><stop offset="0.7" stop-color="#cd391e"/><stop offset="0.79" stop-color="#c1340d"/><stop offset="0.88" stop-color="#ba3103"/><stop offset="1" stop-color="#b83000"/></linearGradient><linearGradient id="未命名的渐变_285-2" x1="80.5" y1="4.89" x2="80.5" y2="0" gradientTransform="translate(161 4.89) rotate(-180)" xlink:href="#未命名的渐变_285"/><linearGradient id="未命名的渐变_255" x1="40.67" y1="4.13" x2="40.67" y2="0.76" gradientUnits="userSpaceOnUse"><stop offset="0" stop-color="#8f0000"/><stop offset="0.12" stop-color="#920101"/><stop offset="0.21" stop-color="#9c0606"/><stop offset="0.3" stop-color="#ad0d0d"/><stop offset="0.38" stop-color="#c51717"/><stop offset="0.46" stop-color="#e32424"/><stop offset="0.5" stop-color="#f52c2b"/><stop offset="0.54" stop-color="#e32424"/><stop offset="0.62" stop-color="#c51717"/><stop offset="0.7" stop-color="#ad0d0d"/><stop offset="0.79" stop-color="#9c0606"/><stop offset="0.88" stop-color="#920101"/><stop offset="1" stop-color="#8f0000"/></linearGradient><linearGradient id="未命名的渐变_163" x1="1.89" y1="4.89" x2="1.89" gradientUnits="userSpaceOnUse"><stop offset="0" stop-color="#42193a"/><stop offset="0.21" stop-color="#451a3c"/><stop offset="0.38" stop-color="#4f1d43"/><stop offset="0.5" stop-color="#5c204c"/><stop offset="0.62" stop-color="#4f1d43"/><stop offset="0.79" stop-color="#451a3c"/><stop offset="1" stop-color="#42193a"/></linearGradient><linearGradient id="未命名的渐变_163-2" x1="79.44" y1="4.89" x2="79.44" y2="0" gradientTransform="translate(158.89 4.89) rotate(180)" xlink:href="#未命名的渐变_163"/></defs><title>胜-2</title><g id="图层_2" data-name="图层 2"><g id="图层_1-2" data-name="图层 1"><polygon points="1.67 2.44 1.67 99.35 40.67 127.26 79.67 99.35 79.67 2.44 1.67 2.44" style="fill:url(#未命名的渐变_221)"/><polygon points="74.63 4.03 74.63 96.98 40.67 121.1 6.7 96.98 6.7 4.03 5.62 4.03 5.62 97.41 40.67 122.26 75.71 97.41 75.71 4.03 74.63 4.03" style="fill:url(#未命名的渐变_212)"/><rect width="1.67" height="4.89" style="fill:url(#未命名的渐变_285)"/><rect x="79.67" width="1.67" height="4.89" transform="translate(161 4.89) rotate(180)" style="fill:url(#未命名的渐变_285-2)"/><rect x="2.11" y="0.76" width="77.11" height="3.37" style="fill:url(#未命名的渐变_255)"/><path d="M1.67,0H2a.14.14,0,0,1,.14.14v4.6A.14.14,0,0,1,2,4.89h-.3a0,0,0,0,1,0,0V0A0,0,0,0,1,1.67,0Z" style="fill:url(#未命名的渐变_163)"/><path d="M79.22,0h.3a.14.14,0,0,1,.14.14v4.6a.14.14,0,0,1-.14.14h-.3a0,0,0,0,1,0,0V0a0,0,0,0,1,0,0Z" transform="translate(158.89 4.89) rotate(-180)" style="fill:url(#未命名的渐变_163-2)"/><text transform="translate(18.13 67.57)" style="font-size:45.081993103027344px;fill:#ffe6ae;font-family:MicrosoftYaHei, Microsoft YaHei">胜</text></g></g></svg>