<svg xmlns="http://www.w3.org/2000/svg" xmlns:xlink="http://www.w3.org/1999/xlink" viewBox="0 0 81.33 127.26"><defs><linearGradient id="未命名的渐变_586" x1="40.67" y1="4.62" x2="40.67" y2="117.13" gradientUnits="userSpaceOnUse"><stop offset="0" stop-color="#427878"/><stop offset="0" stop-color="#508283"/><stop offset="0.01" stop-color="#769b9f"/><stop offset="0.02" stop-color="#8dabb1"/><stop offset="0.02" stop-color="#95b1b7"/><stop offset="0.03" stop-color="#8fabb1"/><stop offset="0.1" stop-color="#749196"/><stop offset="0.16" stop-color="#638286"/><stop offset="0.2" stop-color="#5d7c80"/><stop offset="0.54" stop-color="#54767a"/><stop offset="1" stop-color="#41686c"/></linearGradient><linearGradient id="未命名的渐变_348" x1="40.67" y1="4.03" x2="40.67" y2="122.26" gradientUnits="userSpaceOnUse"><stop offset="0" stop-color="#124b57"/><stop offset="0" stop-color="#30646b"/><stop offset="0.01" stop-color="#729b98"/><stop offset="0.01" stop-color="#a7c6bb"/><stop offset="0.02" stop-color="#cce5d4"/><stop offset="0.02" stop-color="#e4f8e3"/><stop offset="0.02" stop-color="#ecffe9"/><stop offset="0.02" stop-color="#ebffe8"/><stop offset="0.09" stop-color="#d0f7d9"/><stop offset="0.15" stop-color="#bff3d0"/><stop offset="0.2" stop-color="#b9f1cd"/><stop offset="1" stop-color="#b9f1cd"/></linearGradient><linearGradient id="未命名的渐变_506" x1="0.83" y1="4.89" x2="0.83" gradientUnits="userSpaceOnUse"><stop offset="0" stop-color="#4f6f7c"/><stop offset="0.09" stop-color="#588089"/><stop offset="0.36" stop-color="#72b0ad"/><stop offset="0.5" stop-color="#7cc2bb"/><stop offset="0.64" stop-color="#72b0ad"/><stop offset="0.91" stop-color="#588089"/><stop offset="1" stop-color="#4f6f7c"/></linearGradient><linearGradient id="未命名的渐变_506-2" x1="80.5" y1="4.89" x2="80.5" y2="0" gradientTransform="translate(161 4.89) rotate(-180)" xlink:href="#未命名的渐变_506"/><linearGradient id="未命名的渐变_474" x1="40.67" y1="4.13" x2="40.67" y2="0.76" gradientUnits="userSpaceOnUse"><stop offset="0" stop-color="#36505b"/><stop offset="0.33" stop-color="#5b7b89"/><stop offset="0.5" stop-color="#6a8d9b"/><stop offset="0.67" stop-color="#5b7b89"/><stop offset="1" stop-color="#36505b"/></linearGradient><linearGradient id="未命名的渐变_67" x1="1.89" y1="4.89" x2="1.89" gradientUnits="userSpaceOnUse"><stop offset="0" stop-color="#212d3a"/><stop offset="0.24" stop-color="#23303d"/><stop offset="0.43" stop-color="#2b3a46"/><stop offset="0.5" stop-color="#2f404c"/><stop offset="0.57" stop-color="#2b3a46"/><stop offset="0.76" stop-color="#23303d"/><stop offset="1" stop-color="#212d3a"/></linearGradient><linearGradient id="未命名的渐变_67-2" x1="79.44" y1="4.89" x2="79.44" y2="0" gradientTransform="translate(158.89 4.89) rotate(180)" xlink:href="#未命名的渐变_67"/></defs><title>败-2</title><g id="图层_2" data-name="图层 2"><g id="图层_1-2" data-name="图层 1"><polygon points="1.67 2.44 1.67 99.35 40.67 127.26 79.67 99.35 79.67 2.44 1.67 2.44" style="fill:url(#未命名的渐变_586)"/><polygon points="74.63 4.03 74.63 96.98 40.67 121.1 6.7 96.98 6.7 4.03 5.62 4.03 5.62 97.41 40.67 122.26 75.71 97.41 75.71 4.03 74.63 4.03" style="opacity:0.6;fill:url(#未命名的渐变_348)"/><rect width="1.67" height="4.89" style="fill:url(#未命名的渐变_506)"/><rect x="79.67" width="1.67" height="4.89" transform="translate(161 4.89) rotate(180)" style="fill:url(#未命名的渐变_506-2)"/><rect x="2.11" y="0.76" width="77.11" height="3.37" style="fill:url(#未命名的渐变_474)"/><path d="M1.67,0h0a.44.44,0,0,1,.44.44v4a.44.44,0,0,1-.44.44h0a0,0,0,0,1,0,0V0A0,0,0,0,1,1.67,0Z" style="fill:url(#未命名的渐变_67)"/><path d="M79.22,0h0a.44.44,0,0,1,.44.44v4a.44.44,0,0,1-.44.44h0a0,0,0,0,1,0,0V0A0,0,0,0,1,79.22,0Z" transform="translate(158.89 4.89) rotate(-180)" style="fill:url(#未命名的渐变_67-2)"/><text transform="translate(18.13 67.57)" style="font-size:45.08198928833008px;fill:#fff;font-family:MicrosoftYaHei, Microsoft YaHei">败</text></g></g></svg>