<svg xmlns="http://www.w3.org/2000/svg" xmlns:xlink="http://www.w3.org/1999/xlink" viewBox="0 0 18 18"><defs><style>.cls-1{fill:none;}.cls-2{fill:url(#未命名的渐变_77);}.cls-3{fill:#ccc;}</style><linearGradient id="未命名的渐变_77" x1="1.01" y1="9" x2="16.99" y2="9" gradientUnits="userSpaceOnUse"><stop offset="0" stop-color="#9448ff"/><stop offset="1" stop-color="#5d3cef"/></linearGradient></defs><title>在线支付</title><g id="图层_2" data-name="图层 2"><g id="图层_1-2" data-name="图层 1"><rect class="cls-1" width="18" height="18"/><path class="cls-2" d="M17,4a.83.83,0,0,0-.82-.84H1.83A.83.83,0,0,0,1,4V6.2H17ZM1,7.73V14a.83.83,0,0,0,.82.84H16.17A.83.83,0,0,0,17,14V7.73Z"/><rect class="cls-3" x="2.01" y="9" width="1" height="1.27" rx="0.26"/><rect class="cls-3" x="3.76" y="9" width="1" height="1.27" rx="0.26"/><rect class="cls-3" x="5.5" y="9" width="1" height="1.27" rx="0.26"/><path class="cls-3" d="M15.49,10.78,15,12.83a.32.32,0,0,1-.27.25H11.68a.19.19,0,0,1-.19-.26L12,10.78a.34.34,0,0,1,.32-.26h3a.2.2,0,0,1,.19.26Z"/></g></g></svg>