<svg xmlns="http://www.w3.org/2000/svg" xmlns:xlink="http://www.w3.org/1999/xlink" viewBox="0 0 1999.81 999.09"><defs><linearGradient id="未命名的渐变_2" x1="540.47" y1="805.64" x2="185.65" y2="805.64" gradientUnits="userSpaceOnUse"><stop offset="0" stop-color="#07f1b6"/><stop offset="1" stop-color="#3cc0fe"/></linearGradient><linearGradient id="未命名的渐变_2-2" x1="1849.81" y1="805.64" x2="1473.57" y2="805.64" xlink:href="#未命名的渐变_2"/><linearGradient id="未命名的渐变_2-3" x1="1348.65" y1="572.14" x2="729.98" y2="700.14" xlink:href="#未命名的渐变_2"/><linearGradient id="未命名的渐变_2-4" x1="1108.05" y1="706.61" x2="930.72" y2="762.61" xlink:href="#未命名的渐变_2"/><linearGradient id="未命名的渐变_2-5" x1="1098.24" y1="739.21" x2="1190.01" y2="739.21" xlink:href="#未命名的渐变_2"/><linearGradient id="未命名的渐变_2-6" x1="930.1" y1="767.13" x2="942.55" y2="698.68" xlink:href="#未命名的渐变_2"/><linearGradient id="未命名的渐变_2-7" x1="901.31" y1="528.32" x2="1171.23" y2="528.32" xlink:href="#未命名的渐变_2"/><clipPath id="clip-path"><path d="M1021.48,594.21a45,45,0,0,0,33.25-1.12l.49-.23c16.42-7.51,31.71,14.76,11.27,28s-51.45,11.39-65.2-3.23C989.26,604.81,1000.46,586.8,1021.48,594.21Z" style="fill:none"/></clipPath></defs><title>404</title><g id="图层_2" data-name="图层 2"><g id="图层_1-2" data-name="图层 1"><path d="M584.31,743l-8.34.71V404.58c0-1.68-.83-2.44-.83-4.11,0-2.5,0-3.33-.84-4.92,0-.84-.83-2.43-.83-3.27-.84-2.43-.84-3.26-1.67-4.86a5.7,5.7,0,0,1-1.66-3.19,19.92,19.92,0,0,0-3.34-3.87c-.82-.76-1.66-2.36-2.49-3.13s-1.67-1.52-3.33-3c0-.83-1.68-1.52-2.5-1.44a.75.75,0,0,0-.84-.77c-1.66-.68-2.5-1.45-4.17-2.13-.82-.76-2.49-1.45-4.16-3-.83.07-2.5-.61-3.34-.54-1.66-.68-4.16-.46-5-1.22a7.25,7.25,0,0,1-4.17-.45l-5,.45-1.67.15-1.66.15-5.83.54c-.83.91-2.5,1.07-3.33,1.14-2.5,1.07-4.16,1.22-5,2.14-1.66.15-2.5,1.06-3.33,2.81-2.5.24-3.33,1.15-5,2.14-.84.91-2.5,1.9-3.34,2.81a9.86,9.86,0,0,1-4.16,2.9,13.27,13.27,0,0,1-2.49,3.57c-.83.92-.83,1.75-1.67,1.83q-154,206.55-307.48,419.81c-15.76,22.24-13.27,50.2,7.47,63.12,8.29,6.34,18.25,7.47,28.2,6.11l.83-.1.83-.12q129.85-17.58,260.16-30.34v63.33c0,25.85,20,43.87,45.79,41.51A50.35,50.35,0,0,0,576,898.75V835.41l8.34-.7C610.13,832.55,631,811,631,785.14c0-25-20.84-44.26-46.66-42.1m-99.95,9.07q-82.83,8.11-165.5,18.17,82.67-113,165.5-224Z" style="fill:#a0d7e0;opacity:0.18"/><path d="M438.14,933.64V783.34H171.41v-48.4L427.55,381.7h83.9V725.6h80.38v57.74H511.45v150.3Zm0-208V540.49q0-43.31,2.65-86.61h-2.65c-17.66,32.27-31.79,56-47.69,82.36L250,723.9v1.7Z" style="fill:#0b9f72"/><path d="M175.89,812.21c8.49,7.64,18.68,10.19,28.86,10.19H472.22v64.53c0,26.33,20.39,46.7,46.71,46.7s46.7-20.37,46.7-46.7V822.4h8.49c26.33,0,47.55-20.37,47.55-46.7,0-25.47-21.22-46.7-47.55-46.7h-8.49V677.64H472.22V729h-169l41.37-51.36H223.89l-55.65,69.19c-16.13,20.38-13.59,49.25,7.65,65.38" style="fill:url(#未命名的渐变_2)"/><path d="M1849.47,743l-8.33.71V404.58c0-1.68-.83-2.44-.83-4.11,0-2.5,0-3.33-.84-4.92,0-.84-.83-2.43-.83-3.27-.84-2.43-.84-3.26-1.67-4.86a5.7,5.7,0,0,1-1.66-3.19,20.28,20.28,0,0,0-3.34-3.87c-.83-.76-1.66-2.36-2.5-3.13l-3.32-3c0-.83-1.68-1.52-2.51-1.44a.74.74,0,0,0-.83-.77c-1.66-.68-2.5-1.45-4.17-2.13-.83-.76-2.49-1.45-4.16-3-.83.07-2.5-.61-3.34-.54-1.66-.68-4.16-.46-5-1.22a7.22,7.22,0,0,1-4.16-.45l-5,.45-1.66.15-1.66.15-5.83.54c-.83.91-2.5,1.07-3.33,1.14-2.5,1.07-4.16,1.22-5,2.14-1.66.15-2.5,1.06-3.33,2.81-2.5.24-3.33,1.15-5,2.14-.83.91-2.49,1.9-3.33,2.81a9.93,9.93,0,0,1-4.16,2.9,13,13,0,0,1-2.5,3.57c-.82.92-.82,1.75-1.67,1.83q-154,206.55-307.47,419.81c-15.76,22.24-13.27,50.2,7.47,63.12,8.29,6.34,18.24,7.47,28.2,6.11l.82-.1.84-.12q129.86-17.58,260.15-30.34v63.33c0,25.85,20,43.87,45.8,41.51a50.35,50.35,0,0,0,45.82-49.87V835.41l8.33-.7c25.83-2.16,46.67-23.74,46.67-49.57,0-25-20.84-44.26-46.67-42.1m-100,9.07q-82.82,8.11-165.49,18.17,82.65-113,165.49-224Z" style="fill:#a0d7e0;opacity:0.18"/><path d="M1703.31,933.64V783.34H1436.58v-48.4L1692.71,381.7h83.91V725.6H1857v57.74h-80.37v150.3Zm0-208V540.49q0-43.31,2.65-86.61h-2.65c-17.66,32.27-31.79,56-47.69,82.36L1515.18,723.9v1.7Z" style="fill:#0b9f72"/><path d="M1441.05,812.21c8.5,7.64,18.68,10.19,28.87,10.19h267.47v64.53c0,26.33,20.38,46.7,46.71,46.7s46.69-20.37,46.69-46.7V822.4h8.5c26.33,0,47.55-20.37,47.55-46.7,0-25.47-21.22-46.7-47.55-46.7h-8.5V677.64h-93.4V729h-169l41.37-51.36H1489.06l-55.65,69.19c-16.13,20.38-13.59,49.25,7.64,65.38" style="fill:url(#未命名的渐变_2-2)"/><path d="M1034.38,298.12c-187.25,0-339,151.79-339,339s151.79,339,339,339,339-151.79,339-339S1221.63,298.12,1034.38,298.12Zm0,631.92c-161.79,0-293-131.17-293-293s131.16-293,293-293,292.95,131.16,292.95,293S1196.18,930,1034.38,930Z" style="fill:url(#未命名的渐变_2-3)"/><path d="M1068.07,907.92c8.48-1.5,16.9-3.42,25.3-5.64l-3.11-59.55a112,112,0,0,0-19.09,2.54Z" style="fill:#1f9ed9"/><path d="M1072.85,803.42l-1.68,42.48a92,92,0,0,1,19.09-3.17l-1.36-32.45S1087.49,798.06,1072.85,803.42Z" style="fill:#0c80b3"/><path d="M1141.34,920.48s9.17,1.88,11.06,5.47c0,0-.94-24.52-58.54-14.34l-.49-9.33c-8.4,2.22-16.82,4.14-25.3,5.64l-.41,8.41s-1.07,7.07,14.16,11.31,54.59,22.92,60.23,15-1.18-15.85-23.09-15.56c0,0,17-2.08,25,6.41,0,0,6.34-.19,7-5.28S1141.34,920.48,1141.34,920.48Z" style="fill:#e3da8b"/><path d="M1093.86,911.61s25-8.44,31.87-4.48-12.57,5.94-12.57,5.94,13.1-3.39,15.4,1.84-18.54,4-18.54,4,13.94,1.28,7.74,4.67-46.56,3.82-50.1-7.21l1-19.67,24.4-1Z" style="fill:#1f9ed9"/><path d="M1119,886.59s22.37-1.48,24.66,8.46C1143.62,895.05,1150.21,884.13,1119,886.59Z" style="fill:#bfb36d"/><path d="M1150.87,886.23s-2.13-5.15-17.53-8.55C1133.34,877.68,1157.72,880.85,1150.87,886.23Z" style="fill:#bfb36d"/><path d="M1007.23,907.92c-8.48-1.5-16.9-3.42-25.3-5.64l3.12-59.55a112,112,0,0,1,19.08,2.54Z" style="fill:#1f9ed9"/><path d="M1002.45,803.42l1.68,42.48a92,92,0,0,0-19.08-3.17l1.35-32.45S987.82,798.06,1002.45,803.42Z" style="fill:#0c80b3"/><path d="M934,920.48s-9.18,1.88-11.07,5.47c0,0,1-24.52,58.54-14.34l.49-9.33c8.4,2.22,16.82,4.14,25.3,5.64l.42,8.41s1.06,7.07-14.17,11.31-54.59,22.92-60.22,15,1.17-15.85,23.08-15.56c0,0-17-2.08-25,6.41,0,0-6.34-.19-7-5.28S934,920.48,934,920.48Z" style="fill:#e3da8b"/><path d="M981.44,911.61s-25-8.44-31.86-4.48,12.57,5.94,12.57,5.94-13.1-3.39-15.41,1.84,18.54,4,18.54,4-13.93,1.28-7.74,4.67,46.57,3.82,50.11-7.21l-1-19.67-24.39-1Z" style="fill:#1f9ed9"/><path d="M956.34,886.59s-22.37-1.48-24.66,8.46C931.68,895.05,925.09,884.13,956.34,886.59Z" style="fill:#bfb36d"/><path d="M924.43,886.23s2.13-5.15,17.54-8.55C942,877.68,917.58,880.85,924.43,886.23Z" style="fill:#bfb36d"/><path d="M1096,638.51,1030.3,645l-65.85-6.53S912.58,687,921.52,765.84c7.34,64.74,82.23,69.47,108.78,69.09,26.54.38,101.43-4.35,108.78-69.09C1148,687,1096,638.51,1096,638.51Z" style="fill:url(#未命名的渐变_2-4)"/><path d="M969.14,622.5s20,19,61.16,19S1090,622.2,1090,622.2s-11.67,19.3-59.69,21.33S969.14,622.5,969.14,622.5Z" style="fill:#0c80b3"/><path d="M969.14,644s20,19,61.16,19,59.69-19.3,59.69-19.3S1078.32,663,1030.3,665,969.14,644,969.14,644Z" style="fill:#0c80b3"/><path d="M1104.12,750.06c0,38-33.1,68.74-73.94,68.74S956.24,788,956.24,750.06s33.11-68.74,73.94-68.74S1104.12,712.1,1104.12,750.06Z" style="fill:#e3da8b"/><path d="M1130.1,692.8c-11,29.23-30.79,55.07-57.62,74.47-41.3,29.43-88.28,37.65-136,35.15,25.06,30.11,73.51,32.8,93.78,32.51,26.54.38,101.43-4.35,108.78-69.09A156.07,156.07,0,0,0,1130.1,692.8Z" style="fill:#0c80b3;opacity:0.30000000000000004"/><path d="M1018.4,676.39s-31.87,18.44-17,26,21.24-13,21.24-13-6,12.32,0,14.7,11.69-13.86,11.69-13.86-1.77,8.8,9.21,9.15,2.12-21.24,2.12-21.24S1031.5,670,1018.4,676.39Z" style="fill:#0c80b3"/><polygon points="1140.11 804.38 1214.38 792.24 1219.92 832.65 1145.73 845.36 1140.11 804.38" style="fill:#f2f0f1"/><path d="M1107.72,659.1a23.15,23.15,0,0,0-4.33,4c-18.82,22.57,19.17,18.65,29.85,27.49,15,12.45,16.2,42.55,20.9,59.68,2,7.2,8.55,20.48,6.4,28.43,0,0-6.4,17.09-5,19.71l7.59-2.09s2.82,27.26,6.06,26.37,1.67-20,1.67-20,4.24,16.2,8.64,17.18-1.61-19.31-1.61-19.31,7.22,15.17,11.37,14.43-9.08-29.83-18.67-40.16v0c-6.43-34.23-4.83-75.95-26.79-105.17C1136.1,659.44,1119.86,650.6,1107.72,659.1Z" style="fill:url(#未命名的渐变_2-5)"/><path d="M982.48,671.82l-34.73,13.49L978.92,756l47.37-17.89L996.5,675Q989.48,673.45,982.48,671.82Z" style="fill:#f2f0f1"/><path d="M938.54,675.52l-6.93,32.54s-20.92,6.78-25,32.79,37.88,21.67,56-19c0,0-2.78-3.15,1.77-11.37l1.13,7.23s14.72-19,16.13-17.32-6.88,15.72-6.88,15.72,10-8.76,11.44-4.54-8.18,9.32-8.18,9.32,10.88-1.94,10.65,2.61-20.49,6.18-20.49,6.18-18.14,45-65.25,41.72S896.94,684.52,938.54,675.52Z" style="fill:#0c80b3"/><path d="M940.11,671.08l-6.93,32.55s-20.92,6.77-25,32.78,37.88,21.68,56-19c0,0-2.78-3.16,1.77-11.38l1.13,7.23s14.72-19,16.13-17.32-6.89,15.72-6.89,15.72,10-8.76,11.45-4.54-8.18,9.32-8.18,9.32,10.88-1.94,10.65,2.6-20.5,6.19-20.5,6.19-18.13,44.95-65.25,41.72S898.5,680.08,940.11,671.08Z" style="fill:url(#未命名的渐变_2-6)"/><path d="M902,542.44c7.44,70.78,73.58,121.83,147.74,114S1178,585,1170.54,514.22,1097,392.37,1022.8,400.16,894.55,471.65,902,542.44" style="fill:url(#未命名的渐变_2-7)"/><path d="M1165,452.18c23.88-6.71,51.33-15.66,63.27-38,7.34-13.75,9.66-29.07,8.11-44.17-15.28,65.5-93.42,78.15-93.42,78.15,0,1.49.11,3,.22,4.41C1150.12,454.56,1159,453.59,1165,452.18Z" style="fill:#f0e49b"/><path d="M1236.72,368.6c-.1.47-.22.93-.33,1.39,1.55,15.1-.77,30.42-8.11,44.17-11.94,22.36-39.39,31.31-63.27,38-6,1.41-14.89,2.38-21.82.37,1.9,25.35,15.57,44.67,25.2,55.31a95.62,95.62,0,0,0,30-21c30.68-29.77,41.23-69.91,40.91-109.17C1237.89,372,1236.72,368.6,1236.72,368.6Z" style="fill:#e5db8c"/><path d="M1239.35,377.68c.32,39.26-10.23,79.4-40.91,109.17a95.62,95.62,0,0,1-30,21,86.77,86.77,0,0,0,9.59,9.25C1260.47,490.21,1246.49,405.65,1239.35,377.68Z" style="fill:#d2c474"/><path d="M1171.59,439.44s29.12,9.64,30.32,40.73c0,0,1.69-34.75-26.16-42.53Z" style="fill:#baae65"/><path d="M1213.55,497.81s10.4-27.81-7.11-52.41c0,0,15.11,11.81,12.84,47Z" style="fill:#baae65"/><path d="M1205.31,419.43s24.07,1.66,23.46,35.3c0,0,6-28.57-21.58-36.9Z" style="fill:#baae65"/><path d="M1219.51,405l3.64-4.92s15.88,1,16.64,14.69C1239.79,414.73,1230,401.28,1219.51,405Z" style="fill:#baae65"/><path d="M1137.52,447.63s10.86-10.74,26,0,40.44,56,30.78,74.64-27.3,4.52-27.3,4.52Z" style="fill:#0b9f72"/><path d="M911.62,452.18c-23.87-6.71-51.33-15.66-63.27-38-7.34-13.75-9.66-29.07-8.11-44.17,15.28,65.5,93.42,78.15,93.42,78.15,0,1.49-.11,3-.21,4.41C926.52,454.56,917.64,453.59,911.62,452.18Z" style="fill:#f0e49b"/><path d="M839.91,368.6l.33,1.39c-1.55,15.1.77,30.42,8.11,44.17,11.94,22.36,39.4,31.31,63.27,38,6,1.41,14.9,2.38,21.83.37-1.9,25.35-15.58,44.67-25.21,55.31a95.62,95.62,0,0,1-30-21c-30.68-29.77-41.23-69.91-40.91-109.17C838.74,372,839.91,368.6,839.91,368.6Z" style="fill:#e5db8c"/><path d="M837.28,377.68c-.32,39.26,10.23,79.4,40.91,109.17a95.62,95.62,0,0,0,30,21,87.32,87.32,0,0,1-9.58,9.25C816.16,490.21,830.14,405.65,837.28,377.68Z" style="fill:#d2c474"/><path d="M905,439.44s-29.12,9.64-30.32,40.73c0,0-1.69-34.75,26.16-42.53Z" style="fill:#baae65"/><path d="M863.08,497.81S852.69,470,870.19,445.4c0,0-15.11,11.81-12.84,47Z" style="fill:#baae65"/><path d="M871.33,419.43s-24.07,1.66-23.47,35.3c0,0-6-28.57,21.59-36.9Z" style="fill:#baae65"/><path d="M857.12,405,853.48,400s-15.88,1-16.63,14.69C836.85,414.73,846.62,401.28,857.12,405Z" style="fill:#baae65"/><path d="M939.12,447.63s-10.87-10.74-26,0-40.43,56-30.77,74.64,27.29,4.52,27.29,4.52Z" style="fill:#0b9f72"/><path d="M1140.8,450.51c-39.39-48.75-86.7-53.27-86.7-53.27s15.69-21.49,5.23-21.86-16.5,15.45-16.5,15.45,3.22-18.47-6-20.35-6.53,22.24-6.53,22.24-14.8-21.11-19.63-13.57S1021.1,402,1021.1,402,982,405.4,942.56,444C1004.71,472.34,1080.48,479.93,1140.8,450.51Z" style="fill:#0c80b3;opacity:0.30000000000000004"/><path d="M1013.94,553.8c0,13.44-11.62,24.33-26,24.33s-26-10.89-26-24.33,11.62-24.32,26-24.32S1013.94,540.37,1013.94,553.8Z" style="fill:#fff"/><path d="M1006.15,550.64c0,10.49-8.14,19-18.17,19s-18.18-8.5-18.18-19,8.14-19,18.18-19S1006.15,540.16,1006.15,550.64Z" style="fill:#2b2c2c"/><path d="M988,542.34a5.22,5.22,0,1,1-5.22-5.45A5.34,5.34,0,0,1,988,542.34Z" style="fill:#fff"/><path d="M1116.08,553.8c0,13.44-11.63,24.33-26,24.33s-26-10.89-26-24.33,11.63-24.32,26-24.32S1116.08,540.37,1116.08,553.8Z" style="fill:#fff"/><path d="M1108.29,550.64c0,10.49-8.14,19-18.18,19s-18.17-8.5-18.17-19,8.14-19,18.17-19S1108.29,540.16,1108.29,550.64Z" style="fill:#2b2c2c"/><path d="M1090.11,542.34a5.22,5.22,0,1,1-5.22-5.45A5.33,5.33,0,0,1,1090.11,542.34Z" style="fill:#fff"/><path d="M972.16,485.43c4.8-5.61,12.6-10.15,23.65-2.75a6,6,0,0,1-1.21,10.8l-.21.09c-3.58,1.34-10.7,1.8-16.87,1.93C971.91,495.61,968.66,489.53,972.16,485.43Z" style="fill:#0c80b3"/><path d="M1076.29,485.43c4.8-5.61,12.6-10.15,23.65-2.75a6,6,0,0,1-1.21,10.8l-.21.09c-3.58,1.34-10.7,1.8-16.88,1.93C1076,495.61,1072.79,489.53,1076.29,485.43Z" style="fill:#0c80b3"/><path d="M969.8,581.19s24.09,9.93,38.47-4.6C1008.27,576.59,996,597.85,969.8,581.19Z" style="fill:#0c80b3"/><path d="M1071.94,581.19s24.09,9.93,38.46-4.6C1110.4,576.59,1098.17,597.85,1071.94,581.19Z" style="fill:#0c80b3"/><path d="M952.29,576.59s7.83,18.07,35.69,15.95C988,592.54,957.6,599.27,952.29,576.59Z" style="fill:#0c80b3"/><path d="M1093.87,591.59s20.56,3.1,33.06-20.31C1126.93,571.28,1117.32,599.1,1093.87,591.59Z" style="fill:#0c80b3"/><path d="M1021.48,594.21a45,45,0,0,0,33.25-1.12l.49-.23c16.42-7.51,31.71,14.76,11.27,28s-51.45,11.39-65.2-3.23C989.26,604.81,1000.46,586.8,1021.48,594.21Z" style="fill:#101010"/><g style="clip-path:url(#clip-path)"><path d="M1004.8,628.89c0-8.36,14.27-15.14,31.86-15.14s31.86,6.78,31.86,15.14S1054.26,644,1036.66,644,1004.8,637.25,1004.8,628.89Z" style="fill:#e2453f"/><path d="M1050,603.94h-27.18a7.92,7.92,0,0,1-8-7.74v-6.54a7.92,7.92,0,0,1,8-7.74H1050a7.91,7.91,0,0,1,8,7.74v6.54A7.91,7.91,0,0,1,1050,603.94Z" style="fill:#fff"/></g><path d="M1054.08,634.3s-17.41,7.7-35.5,0C1018.58,634.3,1033.94,646.48,1054.08,634.3Z" style="fill:#0c80b3"/><path d="M922.77,547.79s-12.13,20.29-2.52,21.84S927,551.79,922.77,547.79Z" style="fill:#fff"/><path d="M1126.9,494s-8.06,22,1.69,21.9S1131.85,497.16,1126.9,494Z" style="fill:#fff"/><path d="M967.17,508s-6.23,12.65-.41,13.15S969.91,510.17,967.17,508Z" style="fill:#fff"/><path d="M1153.62,546.48s-5.39,14.69,1.13,14.63S1156.93,548.63,1153.62,546.48Z" style="fill:#fff"/><polygon points="393.92 655 399.6 665.4 410 671.09 399.6 676.78 393.92 687.16 388.24 676.78 377.84 671.09 388.24 665.4 393.92 655" style="fill:#0b9f72"/><path d="M1910.48,334.11a44.4,44.4,0,0,1-34.21-72.74,53.13,53.13,0,1,0,62.54,62.53,44.28,44.28,0,0,1-28.33,10.21" style="fill:#0b9f72"/><polygon points="1973.95 488.31 1983.1 505.02 1999.81 514.16 1983.1 523.32 1973.95 540.01 1964.83 523.32 1948.1 514.16 1964.83 505.02 1973.95 488.31" style="fill:#0b9f72"/><polygon points="1802.71 374.41 1809.33 386.5 1821.41 393.12 1809.33 399.74 1802.71 411.82 1796.1 399.74 1784 393.12 1796.1 386.5 1802.71 374.41" style="fill:#0b9f72"/><polygon points="1990.24 312.25 1992.68 316.68 1997.13 319.12 1992.68 321.55 1990.24 325.99 1987.82 321.55 1983.36 319.12 1987.82 316.68 1990.24 312.25" style="fill:#0b9f72"/><polygon points="1921.04 404.87 1923.47 409.32 1927.92 411.75 1923.47 414.18 1921.04 418.62 1918.61 414.18 1914.17 411.75 1918.61 409.32 1921.04 404.87" style="fill:#0b9f72"/><polygon points="1869.12 472.38 1872.35 478.27 1878.25 481.51 1872.35 484.73 1869.12 490.61 1865.91 484.73 1860.01 481.51 1865.91 478.27 1869.12 472.38" style="fill:#0b9f72"/><polygon points="1877.08 573.11 1880.3 579 1886.19 582.24 1880.3 585.46 1877.08 591.35 1873.86 585.46 1867.95 582.24 1873.86 579 1877.08 573.11" style="fill:#0b9f72"/><polygon points="1886.19 402.63 1889.4 408.53 1895.31 411.75 1889.4 414.97 1886.19 420.86 1882.96 414.97 1877.08 411.75 1882.96 408.53 1886.19 402.63" style="fill:#0b9f72"/><polygon points="1570.38 470.05 1573.6 475.93 1579.49 479.17 1573.6 482.38 1570.38 488.27 1567.15 482.38 1561.24 479.17 1567.15 475.93 1570.38 470.05" style="fill:#0b9f72"/><polygon points="23.82 476.75 32.24 492.15 47.64 500.57 32.24 509.01 23.82 524.39 15.41 509.01 0 500.57 15.41 492.15 23.82 476.75" style="fill:#0b9f72"/><polygon points="155.11 288.54 163.53 303.93 178.91 312.36 163.53 320.78 155.11 336.16 146.69 320.78 131.29 312.36 146.69 303.93 155.11 288.54" style="fill:#0b9f72"/><polygon points="23.82 264.28 26.92 269.93 32.59 273.03 26.92 276.13 23.82 281.78 20.73 276.13 15.06 273.03 20.73 269.93 23.82 264.28" style="fill:#0b9f72"/><polygon points="305.74 327.32 308.83 332.98 314.5 336.07 308.83 339.16 305.74 344.82 302.64 339.16 296.99 336.07 302.64 332.98 305.74 327.32" style="fill:#0b9f72"/><polygon points="239.64 413.25 243.75 420.74 251.27 424.87 243.75 428.96 239.64 436.46 235.56 428.96 228.05 424.87 235.56 420.74 239.64 413.25" style="fill:#0b9f72"/><polygon points="131.29 512.79 135.38 520.29 142.91 524.4 135.38 528.5 131.29 536 127.19 528.5 119.69 524.4 127.19 520.29 131.29 512.79" style="fill:#0b9f72"/><polygon points="639.45 339.34 643.56 346.83 651.05 350.95 643.56 355.04 639.45 362.54 635.34 355.04 627.82 350.95 635.34 346.83 639.45 339.34" style="fill:#0b9f72"/><path d="M1586.89,300.55a23.06,23.06,0,0,0-17.08,7.56,52.21,52.21,0,0,0-94.81-2.52,30.86,30.86,0,0,0-54.36,14.16h189.09a23.2,23.2,0,0,0-22.84-19.2" style="fill:#0b9f72"/><polygon points="630.99 0 645.01 25.64 670.66 39.66 645.01 53.68 630.99 79.33 616.94 53.68 591.33 39.66 616.94 25.64 630.99 0" style="fill:#0b9f72"/><polygon points="383.37 98.32 387.1 105.12 393.92 108.86 387.1 112.58 383.37 119.41 379.65 112.58 372.81 108.86 379.65 105.12 383.37 98.32" style="fill:#7fcbd8"/><path d="M587.84,228a52.25,52.25,0,0,0-40.9,19.72A105.85,105.85,0,0,0,345.4,271.42h294A52.42,52.42,0,0,0,587.84,228" style="fill:#0b9f72"/><path d="M234.22,999.09a5.85,5.85,0,0,1-4.13-10L264.18,955a5.84,5.84,0,0,1,8.26,8.26l-34.09,34.09A5.81,5.81,0,0,1,234.22,999.09Z" style="fill:#0b9f72"/><path d="M268.31,999.09a5.81,5.81,0,0,1-4.13-1.71l-34.09-34.09a5.84,5.84,0,0,1,8.26-8.26l34.09,34.08a5.85,5.85,0,0,1-4.13,10Z" style="fill:#0b9f72"/></g></g></svg>