<svg xmlns="http://www.w3.org/2000/svg" viewBox="0 0 24 24"><defs><style>.cls-1{fill:#7f7f7f;}.cls-2{fill:none;}.cls-3{fill:#4f4f4f;}.cls-4{fill:#727272;}.cls-5{fill:#6a6a6a;}</style></defs><title>资源 14</title><g id="图层_2" data-name="图层 2"><g id="图层_1-2" data-name="图层 1"><path class="cls-1" d="M14.2,13.2h6.3a1.11,1.11,0,0,1,1.1,1.1v6.3a1.11,1.11,0,0,1-1.1,1.1H14.2a1.11,1.11,0,0,1-1.1-1.1V14.3a1.27,1.27,0,0,1,1.1-1.1Z"/><rect class="cls-2" width="24" height="24"/><path class="cls-3" d="M9.8,2.4H3.5A1.11,1.11,0,0,0,2.4,3.5V9.8a1.11,1.11,0,0,0,1.1,1.1H9.8a1.11,1.11,0,0,0,1.1-1.1V3.5A1.11,1.11,0,0,0,9.8,2.4Zm.3,7.3a.27.27,0,0,1-.3.3H3.5a.27.27,0,0,1-.3-.3V3.4a.27.27,0,0,1,.3-.3s6.3,0,6.3.1a.27.27,0,0,1,.3.3Z"/><path class="cls-4" d="M20.5,2.4H14.2a1.27,1.27,0,0,0-1.1,1.1V9.8a1.11,1.11,0,0,0,1.1,1.1h6.3a1.11,1.11,0,0,0,1.1-1.1V3.5A1.11,1.11,0,0,0,20.5,2.4Zm.3,7.3a.27.27,0,0,1-.3.3H14.2a.27.27,0,0,1-.3-.3V3.4a.27.27,0,0,1,.3-.3s6.3,0,6.3.1a.27.27,0,0,1,.3.3Z"/><path class="cls-5" d="M9.8,13.2H3.5a1.11,1.11,0,0,0-1.1,1.1v6.3a1.11,1.11,0,0,0,1.1,1.1H9.8a1.11,1.11,0,0,0,1.1-1.1V14.3A1.11,1.11,0,0,0,9.8,13.2Zm.3,7.3a.27.27,0,0,1-.3.3H3.5a.27.27,0,0,1-.3-.3V14.2a.27.27,0,0,1,.3-.3H9.8a.27.27,0,0,1,.3.3Z"/></g></g></svg>