<svg xmlns="http://www.w3.org/2000/svg" xmlns:xlink="http://www.w3.org/1999/xlink" viewBox="0 0 18 18"><defs><style>.cls-1{fill:#fff;}.cls-2{fill:url(#未命名的渐变_118);}.cls-3{fill:none;}</style><linearGradient id="未命名的渐变_118" x1="9" y1="0.5" x2="9" y2="17.5" gradientUnits="userSpaceOnUse"><stop offset="0" stop-color="#41b035"/><stop offset="1" stop-color="#218b1d"/></linearGradient></defs><title>微信支付</title><g id="图层_2" data-name="图层 2"><g id="图层_1-2" data-name="图层 1"><polygon class="cls-1" points="15.96 3.93 16.62 4.97 6.14 12.13 3.54 5.84 4.78 6.44 6.58 7.64 15.96 3.93"/><path class="cls-2" d="M7,11.21c-1,.61-1.17-.35-1.17-.35L4.53,7.64C4,6.1,5,6.94,5,6.94s.79.65,1.38,1a1.51,1.51,0,0,0,1.28.12L16,3.93A8.62,8.62,0,0,0,9,.5,8.28,8.28,0,0,0,.5,8.56a7.92,7.92,0,0,0,3.22,6.32l-.35,2.2s-.18.64.42.35c.41-.21,1.45-.94,2.07-1.38A8.86,8.86,0,0,0,9,16.62a8.29,8.29,0,0,0,8.5-8.06A7.78,7.78,0,0,0,16.62,5C14,6.7,7.78,10.73,7,11.21Z"/><rect class="cls-3" width="18" height="18"/></g></g></svg>