<svg xmlns="http://www.w3.org/2000/svg" xmlns:xlink="http://www.w3.org/1999/xlink" viewBox="0 0 17.99 18"><defs><style>.cls-1{fill:none;}.cls-2{fill:url(#未命名的渐变_66);}.cls-3{fill:#fff;}</style><linearGradient id="未命名的渐变_66" x1="9" y1="0.37" x2="9" y2="17.63" gradientUnits="userSpaceOnUse"><stop offset="0" stop-color="#3eabda"/><stop offset="1" stop-color="#2e8bdf"/></linearGradient></defs><title>支付宝支付</title><g id="图层_2" data-name="图层 2"><g id="图层_1-2" data-name="图层 1"><rect class="cls-1" width="17.99" height="18"/><path class="cls-2" d="M14.87.37H3.13A2.77,2.77,0,0,0,.37,3.14V14.86a2.77,2.77,0,0,0,2.76,2.77H14.86a2.78,2.78,0,0,0,2.77-2.77V3.14A2.77,2.77,0,0,0,14.87.37Z"/><path class="cls-3" d="M14.59,11.2c-.69-.24-1.62-.59-2.66-1A15,15,0,0,0,13.38,6.6H10V5.39h4.17v-.7H10v-2H8.27A.3.3,0,0,0,8,3V4.73H3.75v.69H8V6.59H4.48v.7h6.76a12.08,12.08,0,0,1-1,2.38C8.1,9,5.75,8.36,4.27,8.74a3.67,3.67,0,0,0-1.9,1.07c-1.62,2-.45,5,3,5a7.32,7.32,0,0,0,5.52-3c2.28,1.11,6.77,3,6.77,3V12.1A22.57,22.57,0,0,1,14.59,11.2ZM5,13.65c-2.7,0-3.49-2.11-2.14-3.28a3.46,3.46,0,0,1,1.69-.63c1.59-.17,3.07.45,4.83,1.32A6,6,0,0,1,5,13.65Z"/></g></g></svg>