<?xml version="1.0" standalone="no"?>
<!DOCTYPE svg PUBLIC "-//W3C//DTD SVG 1.1//EN" "http://www.w3.org/Graphics/SVG/1.1/DTD/svg11.dtd" >
<!--
2013-9-30: Created.
-->
<svg>
<metadata>
Created by iconfont
</metadata>
<defs>

<font id="iconfont" horiz-adv-x="1024" >
  <font-face
    font-family="iconfont"
    font-weight="500"
    font-stretch="normal"
    units-per-em="1024"
    ascent="896"
    descent="-128"
  />
    <missing-glyph />
    
    <glyph glyph-name="shuzi5" unicode="&#59035;" d="M344.615008 376.043784l-65.543709-58.33814-28.899343 32.213134c-15.181788 15.335918-22.657085 30.710368-24.121318 47.549052-0.539454 6.165193-1.194506 13.833152-0.462389 23.080942l33.369108 373.032714 111.782657-119.720343L344.615008 376.043784zM627.828565-89.158566l64.541865-70.629993-31.249822-29.16907c-18.341449-18.418514-34.833341-23.042409-70.129071-23.042409L293.174178-212.000039l-57.413361 59.879438 68.163916 62.962034L627.828565-89.158566zM395.477851 689.158528 281.884168 812l449.789368 0 57.798685-64.503333-68.549241-58.33814L395.477851 689.158528zM634.571745 360.669334c36.837029 0 41.730651-3.044064 68.818968-32.290199l27.12685-29.16907L657.575622 237.866394 408.887146 237.866394c-47.587584 0-58.761997 4.585362-84.077821 30.710368l-27.12685 29.16907 71.246513 62.962034L634.571745 360.707866zM678.88407 222.491944l68.433643 59.879438 30.325043-30.710368c11.829464-12.253321 19.535956-30.710368 20.768994-44.504988 0.655052-7.667959 0.192662-19.959813-0.115597-33.792965l-18.726774-207.227552c-2.928467-36.837029-11.790932-58.376672-26.047941-70.629993l-42.693962-38.378327-57.837218 64.503333L678.88407 222.491944z"  horiz-adv-x="1024" />

    
    <glyph glyph-name="chongzhijiaofei" unicode="&#58904;" d="M951.7 607.9c0 30.7-24.9 55.6-55.6 55.6L118 663.5c-30.7 0-55.6-24.9-55.6-55.6l0-111.2 889.2 0L951.6 607.9zM951.7 441.2 62.5 441.2l0-444.6 0-4c0-28.5 23.1-51.6 51.6-51.6l4 0 632.1 0 149.9 0c28.5 0 51.6 23.1 51.6 51.6L951.7 137.8c0 0 0 0 0 0L951.7 441.2 951.7 441.2zM382.1 107.7 159.8 107.7c-15.3 0-27.8 12.4-27.8 27.8 0 15.4 12.4 27.8 27.8 27.8l222.3 0c15.3 0 27.8-12.4 27.8-27.8C409.9 120.2 397.5 107.7 382.1 107.7zM437.7 218.9 159.8 218.9c-15.3 0-27.8 12.4-27.8 27.8 0 15.3 12.4 27.8 27.8 27.8l277.9 0c15.3 0 27.8-12.4 27.8-27.8C465.5 231.3 453 218.9 437.7 218.9zM648.4 218.9l-55.6 0c-15.4 0-27.8 12.4-27.8 27.8 0 15.3 12.4 27.8 27.8 27.8l55.6 0c15.3 0 27.8-12.4 27.8-27.8C676.2 231.3 663.8 218.9 648.4 218.9z"  horiz-adv-x="1024" />

    
    <glyph glyph-name="8" unicode="&#59081;" d="M548.340622 99.350756c15.530667 8.226133 21.788444 27.192889 13.494044 42.825956 0 0-15.451022 29.036089-23.9616 44.817067-4.334933-20.423111-16.270222-27.295289-44.430222-51.677867l12.1856-22.9376C511.146667 102.070044 532.559644 90.885689 548.340622 99.350756zM466.557156 136.248889l43.337956 37.535289c14.552178 12.743111 13.824 34.440533 1.353956 46.478222-12.014933 12.196978-31.118222 12.060444-43.019378 1.672533l-43.349333-37.649067c-13.357511-11.537067-14.4384-31.596089-2.9696-44.8512C431.889067 128.056889 451.845689 123.687822 466.557156 136.248889zM618.757689 136.647111c16.531911 8.851911 21.253689 27.989333 13.5168 42.951111l-49.026844 91.5456 13.937778 8.772267 54.533689-102.923378c8.135111-15.325867 27.022222-21.151289 42.712178-13.141333 16.327111 8.8064 21.538133 27.784533 13.494044 42.939733l-56.695467 106.769067 14.4384 8.658489c0 0 37.501156-72.169244 51.006578-97.883022 8.351289-15.5648 27.670756-21.151289 42.734933-13.027556 15.837867 8.374044 21.754311 27.249778 13.482667 42.928356-42.461867 80.418133-33.234489 63.499378-50.540089 91.864178-51.108978 70.974578-125.622044 119.694222-198.997333 180.462933l-130.400711-61.2352c-26.9312-12.379022-55.273244 0.500622-66.446222 23.552-12.196978 25.3952-1.456356 55.000178 23.2448 66.958222l31.197867 14.6432-100.215467 0.284444-106.166044-145.282844 69.188267-63.624533c2.912711 6.405689 7.224889 12.151467 12.606578 16.827733l77.687467 67.458844c20.707556 17.692444 52.064711 15.894756 70.405689-4.983467 9.045333-10.535822 13.357511-23.483733 12.322133-36.818489 18.1248 4.096 36.545422-2.389333 48.423822-15.951644 14.563556-16.7936 16.429511-40.402489 5.279289-58.641067 11.616711-1.877333 22.061511-7.668622 29.718756-16.509156 17.089422-19.785956 16.167822-48.344178-0.500622-66.56 11.423289 1.683911 24.928711-4.357689 31.288889-14.142578 0 0 33.063822-60.051911 45.078756-82.830222C581.484089 139.3664 603.044978 128.250311 618.757689 136.647111zM414.333156 196.437333l69.176889 59.972267c13.0048 11.184356 14.6432 31.197867 2.821689 44.839822-11.207111 13.038933-31.243378 14.7456-44.509867 3.163022-1.615644-1.410844-70.132622-60.7232-71.623111-62.281956-11.002311-11.787378-11.172978-30.071467-0.375467-42.541511C380.051911 187.733333 400.258844 184.2176 414.333156 196.437333zM353.575822 249.252978l94.890667 82.249956c13.198222 11.309511 14.677333 31.311644 2.958222 44.839822-11.6736 13.323378-31.482311 14.5408-44.521244 3.185778l-86.641778-74.968178c-20.081778-12.674844-22.846578-38.775467-11.184356-52.167111C318.7712 241.015467 339.205689 236.680533 353.575822 249.252978zM265.466311 320c-11.776 13.6192-10.069333 33.678222 2.844444 44.839822l77.710222 67.470222c13.016178 11.104711 33.029689 10.092089 44.6464-3.185778 11.662222-13.573689 10.422044-33.291378-2.844444-44.839822l-77.824-67.470222C297.824711 306.153244 277.856711 305.846044 265.466311 320zM526.108444 548.078933l-140.959289-66.161778c-16.5888-7.748267-34.872889-0.147911-42.200178 14.939022-7.896178 16.497778-0.694044 35.0208 14.7456 42.541511l141.858133 66.537244c19.717689 7.190756 39.401244 10.433422 63.601778 10.433422 48.765156 0 148.8896-26.248533 195.015111-39.344356l82.852978-141.300622-47.5136-29.946311c-11.377778-10.911289-20.6848-41.6768-45.602133-58.049422C696.900267 416.847644 607.732622 488.903111 526.108444 548.078933zM771.003733 605.946311l87.108267 53.236622 104.777956-175.251911-90.532978-50.779022L771.003733 605.946311zM55.842133 494.159644l122.402133 178.016711 90.043733-72.192L148.707556 434.0736 55.842133 494.159644z"  horiz-adv-x="1024" />

    
    <glyph glyph-name="fanhui" unicode="&#59010;" d="M736-128l-512 512 505.6 512 70.4-70.4-441.6-441.6 441.6-448-64-64z"  horiz-adv-x="1024" />

    
    <glyph glyph-name="banbengengxin" unicode="&#58940;" d="M511.706311 895.939625c-282.59624 0-511.684822-229.089605-511.684822-511.684822s229.089605-511.684822 511.684822-511.684822 511.684822 229.089605 511.684822 511.684822S794.301528 895.939625 511.706311 895.939625zM256.95628 458.801636c-0.641613 1.695618-1.092891 3.481288-1.092891 5.414313L255.863389 624.107543c0 8.831132 7.15905 15.989159 15.989159 15.989159 8.831132 0 15.989159-7.15905 15.989159-15.989159l0-116.082832c43.61945 78.727039 127.471207 132.073014 223.849254 132.073014 130.435725 0 237.85013-97.685833 253.618255-223.849254l-32.311917 0c-15.554254 108.438735-108.564601 191.869912-221.306338 191.869912-89.268116 0-166.197206-52.315506-202.118324-127.913275l122.171504 0c8.831132 0 15.989159-7.15905 15.989159-15.989159 0-8.829086-7.158027-15.988136-15.989159-15.988136L297.235658 448.227814l-25.38311 0-7.500834 0c0.157589 0.60989 0.214894 1.254573 0.3776 1.863441-2.072195 1.050935-3.78521 2.548032-5.215792 4.353145-0.653893 0.796132-1.226944 1.629103-1.715061 2.542916C257.486352 457.587995 257.190617 458.159 256.95628 458.801636zM767.519558 144.429693c0-8.828063-7.15905-15.988136-15.989159-15.988136-8.831132 0-15.989159 7.160073-15.989159 15.988136L735.541239 260.512525c-43.61945-78.724992-127.471207-132.070968-223.849254-132.070968-130.435725 0-237.851153 97.688903-253.618255 223.850278l32.311917 0c15.553231-108.437711 108.564601-191.871959 221.306338-191.871959 89.245603 0 166.064176 52.356438 202.017016 127.913275L591.637782 288.33315c-8.830109 0-15.989159 7.15905-15.989159 15.988136 0 8.831132 7.15905 15.991206 15.989159 15.991206L719.55208 320.312492l6.596232 0 32.883945 0c-0.157589-0.60989-0.215918-1.25662-0.3776-1.864464 2.072195-1.049912 3.784186-2.545986 5.215792-4.352121 0.653893-0.797156 1.225921-1.63115 1.715061-2.544963 0.311085-0.600681 0.606821-1.171686 0.841158-1.815345 0.641613-1.695618 1.092891-3.481288 1.092891-5.414313L767.519558 144.429693z"  horiz-adv-x="1024" />

    
    <glyph glyph-name="shijian" unicode="&#58957;" d="M512 832c-256 0-460.8-208-460.8-460.8s208-460.8 460.8-460.8 460.8 208 460.8 460.8S768 832 512 832zM512-44.8c-227.2 0-412.8 185.6-412.8 412.8s185.6 412.8 412.8 412.8 412.8-185.6 412.8-412.8S742.4-44.8 512-44.8zM809.6 352l-278.4 0 0 281.6c0 12.8-9.6 22.4-22.4 22.4-12.8 0-22.4-9.6-22.4-22.4l0-307.2c0-12.8 9.6-22.4 22.4-22.4 0 0 3.2 0 3.2 0l297.6 0c12.8 0 22.4 9.6 22.4 22.4C832 342.4 822.4 352 809.6 352z"  horiz-adv-x="1024" />

    
    <glyph glyph-name="sousuo" unicode="&#58953;" d="M948.179151-7.465786 751.567237 189.15022c58.159608 68.273966 93.466742 156.547429 93.466742 253.049297 0 215.604476-175.409009 391.012462-391.021671 391.012462S62.990636 657.80297 62.990636 442.199517c0-215.603453 175.407985-391.006322 391.020648-391.006322 96.492658 0 184.78147 35.307134 253.05032 93.461625l196.605773-196.606797c6.148024-6.142907 14.202467-9.217942 22.255887-9.217942 8.048303 0 16.10684 3.075035 22.255887 9.217942C960.464965-39.669232 960.464965-19.747507 948.179151-7.465786L948.179151-7.465786zM454.012308 114.108107c-180.915419 0-328.081177 147.189294-328.081177 328.090387 0 180.911326 147.165758 328.095503 328.081177 328.095503 180.916443 0 328.087317-147.189294 328.087317-328.095503S634.92875 114.108107 454.012308 114.108107L454.012308 114.108107zM454.012308 114.108107"  horiz-adv-x="1024" />

    
    <glyph glyph-name="jilu" unicode="&#58911;" d="M1052.586667 579.626667 992.426667 639.68C975.786667 656.32 946.133333 653.653333 926.186667 633.6L473.6 181.013333C453.546667 161.066667 450.88 131.413333 467.52 114.773333l60.053333-60.16c16.64-16.533333 46.293333-13.866667 66.346667 6.186667L1046.4 513.28C1066.453333 533.333333 1069.226667 562.986667 1052.586667 579.626667zM573.226667-1.173333l2.133333-1.813333L387.093333-102.4 768-102.4c28.373333 0 51.2 22.933333 51.2 51.2L819.2 240 586.453333 8.32C582.293333 4.266667 577.706667 1.92 573.226667-1.173333zM408.106667 140.48C411.84 150.4 417.066667 160.106667 425.493333 168.426667L819.2 560.32 819.2 844.8C819.2 873.066667 796.266667 896 768 896L51.2 896C22.933333 896 0 873.066667 0 844.8l0-895.893333c0-28.373333 22.933333-51.2 51.2-51.2l253.226667 0 101.333333 244.906667L408.106667 140.48zM128 819.2l537.6 0c28.373333 0 51.2-14.08 51.2-31.573333 0-17.493333-22.933333-31.466667-51.2-31.466667L128 756.16c-28.266667 0-51.2 14.08-51.2 31.466667C76.8 805.12 99.733333 819.2 128 819.2zM128 650.56l537.6 0c28.373333 0 51.2-14.826667 51.2-33.066667 0-18.24-22.933333-33.066667-51.2-33.066667L128 584.426667c-28.266667 0-51.2 14.826667-51.2 33.066667C76.8 635.733333 99.733333 650.56 128 650.56zM128 409.813333c-28.266667 0-51.2 15.36-51.2 34.133333s22.933333 34.133333 51.2 34.133333l332.8 0c28.266667 0 51.2-15.253333 51.2-34.133333s-22.933333-34.133333-51.2-34.133333L128 409.813333zM417.28 111.146667 320.64-111.68l215.146667 109.653333L417.28 111.146667z"  horiz-adv-x="1076" />

    
    <glyph glyph-name="biaoqian" unicode="&#58921;" d="M788.48 266.581333c0 17.066667-5.802667 31.744-17.749333 44.714667L421.205333 660.138667c-12.288 12.288-29.354667 22.869333-49.834667 31.744-21.162667 8.874667-39.936 12.970667-57.002667 12.970667L110.933333 704.853333c-17.066667 0-31.744-6.485333-44.032-18.773333-12.288-12.288-18.773333-26.965333-18.773333-44.032l0-202.752c0-17.066667 4.096-36.522667 12.970667-57.002667 8.874667-21.162667 18.773333-37.546667 31.744-49.834667l349.525333-349.525333c12.288-12.288 26.965333-17.749333 44.032-17.749333 17.066667 0 31.744 5.802667 44.714667 17.749333l239.616 239.616C781.994667 234.837333 788.48 249.514667 788.48 266.581333L788.48 266.581333 788.48 266.581333zM248.490667 503.808c-12.288-12.288-26.965333-18.090667-44.032-18.090667-17.066667 0-31.744 5.802667-44.032 18.090667-12.288 12.288-18.090667 26.965333-18.090667 44.032 0 17.066667 5.802667 31.744 18.090667 44.032 12.288 12.288 26.965333 18.090667 44.032 18.090667 17.066667 0 31.744-5.802667 44.032-18.090667C260.778667 579.584 266.24 564.906667 266.24 547.84 267.264 530.432 260.778667 516.096 248.490667 503.808L248.490667 503.808 248.490667 503.808zM958.122667 311.637333 608.597333 660.138667c-12.288 12.288-29.354667 22.869333-49.834667 31.744C537.6 700.757333 518.826667 704.853333 501.76 704.853333l-109.909333 0c17.066667 0 36.522667-4.096 57.002667-12.970667 21.162667-8.874667 37.546667-18.773333 49.834667-31.744l349.525333-348.501333c12.288-12.970667 18.090667-27.648 18.090667-44.714667s-5.802667-31.744-18.090667-44.032l-229.034667-229.717333c9.898667-9.898667 18.773333-17.066667 25.941333-21.845333 7.168-4.778667 17.066667-6.485333 28.672-6.485333 17.066667 0 31.744 5.802667 44.714667 18.090667l239.616 240.298667c12.288 12.288 17.749333 26.965333 17.749333 44.032S970.069333 298.325333 958.122667 311.637333L958.122667 311.637333 958.122667 311.637333zM958.122667 311.637333"  horiz-adv-x="1024" />

    
    <glyph glyph-name="tixian" unicode="&#59004;" d="M922.122705 548.948773c0 19.764136-16.021905 35.785018-35.785018 35.785018L99.064226 584.73379c-19.764136 0-35.785018-16.020882-35.785018-35.785018l0-533.198811c0-19.763113 16.020882-35.785018 35.785018-35.785018l787.273461 0c19.763113 0 35.785018 16.021905 35.785018 35.785018L922.122705 151.733029 696.67607 151.733029l0 0.022513c-0.596588-0.008186-1.191128-0.022513-1.788739-0.022513-72.136947 0-130.615826 58.478879-130.615826 130.615826s58.478879 130.615826 130.615826 130.615826c0.598634 0 1.193175-0.014326 1.788739-0.022513l0 0.022513 225.446635 0L922.122705 548.948773zM617.949031 282.348855c0-42.491767 34.446533-76.9383 76.9383-76.9383s76.9383 34.446533 76.9383 76.9383-34.446533 76.9383-76.9383 76.9383S617.949031 324.840622 617.949031 282.348855zM836.231499 618.031151l-44.421722 155.503657c-4.469801 15.647375-20.828374 24.724101-36.537148 20.273742L134.930085 618.031151 836.231499 618.031151z"  horiz-adv-x="1024" />

    
    <glyph glyph-name="shanchu" unicode="&#58928;" d="M817.968553 680.102858l-169.357176 0 0 58.869782c0 25.391297-20.657482 46.048779-46.048779 46.048779l-181.125197 0c-25.391297 0-46.048779-20.657482-46.048779-46.048779l0-58.869782-169.357176 0c-25.391297 0-46.048779-20.657482-46.048779-46.048779l0-71.631434c0-25.391297 20.657482-46.048779 46.048779-46.048779l28.321022 0 0-425.947112c0-59.246359 48.200792-107.447151 107.447151-107.447151l340.40076 0c59.246359 0 107.447151 48.200792 107.447151 107.447151L789.647531 516.373867l28.321022 0c25.391297 0 46.048779 20.657482 46.048779 46.048779l0 71.631434C864.017332 659.445376 843.35985 680.102858 817.968553 680.102858zM426.553932 733.85611l170.892135 0 0-53.753251-170.892135 0L426.553932 733.85611zM738.482221 90.425731c0-31.033807-25.248034-56.281841-56.281841-56.281841L341.79962 34.14389c-31.033807 0-56.281841 25.248034-56.281841 56.281841L285.517779 516.373867l452.964442 0L738.482221 90.425731zM812.852022 567.539176l-601.704045 0 0 61.398372 203.227588 0c2.302439-0.356111 4.66116-0.542352 7.061836-0.542352l181.125197 0c2.400676 0 4.759397 0.186242 7.062859 0.542352l203.226564 0L812.852022 567.539176zM513.023306 112.679571c14.128789 0 25.582655 11.453866 25.582655 25.582655l0 288.572348c0 14.128789-11.453866 25.582655-25.582655 25.582655-14.128789 0-25.582655-11.453866-25.582655-25.582655l0-288.572348C487.440651 124.133438 498.894518 112.679571 513.023306 112.679571zM645.541459 112.679571c14.128789 0 25.582655 11.453866 25.582655 25.582655l0 288.572348c0 14.128789-11.453866 25.582655-25.582655 25.582655s-25.582655-11.453866-25.582655-25.582655l0-288.572348C619.958804 124.133438 631.41267 112.679571 645.541459 112.679571zM380.505154 112.679571c14.128789 0 25.582655 11.453866 25.582655 25.582655l0 288.572348c0 14.128789-11.453866 25.582655-25.582655 25.582655s-25.582655-11.453866-25.582655-25.582655l0-288.572348C354.922499 124.133438 366.376365 112.679571 380.505154 112.679571z"  horiz-adv-x="1024" />

    
    <glyph glyph-name="wo" unicode="&#58979;" d="M717.664 283.805c-52.734-47.461-121.289-79.102-200.391-79.102s-147.656 31.641-205.664 79.102c-131.836-68.555-221.484-158.203-221.484-321.68l843.75 0c0 163.477-89.648 247.852-216.211 321.68zM512 267.984c131.836 0 237.305 110.742 237.305 242.578s-105.469 242.578-237.305 242.578-237.305-110.742-237.305-242.578c0-137.109 110.742-242.578 237.305-242.578z"  horiz-adv-x="1024" />

    
    <glyph glyph-name="mima" unicode="&#58974;" d="M522.368 885.6064c-144.1536 0-252.9024-114.6624-252.9024-266.752l0-93.7472-8.192 0c-75.776 0-137.4464-63.3088-137.4464-141.0816l0-360.5248c0-77.7728 61.6704-141.1072 137.4464-141.1072l524.3392 0c75.776 0 137.4464 63.3344 137.4464 141.1072L923.0592 384.0256c0 77.7728-61.6704 141.0816-137.4464 141.0816l-4.5056 0c-1.2032 0.4352-2.4576 0.5632-3.712 0.768l0 93.0048C777.4464 770.9184 667.8016 885.6064 522.368 885.6064L522.368 885.6064zM522.368 843.776c123.52 0 213.248-94.592 213.248-224.9472l0-92.3648L311.3216 526.464l0 92.3648C311.3216 749.184 400.0768 843.776 522.368 843.776L522.368 843.776zM881.28 384.0256l0-360.5248c0-54.7328-42.9312-99.2768-95.616-99.2768L261.2992-75.776c-52.736 0-95.616 44.544-95.616 99.2768L165.6832 384.0256c0 54.7072 42.88 99.2512 95.616 99.2512l50.0224 0 0 1.3824 424.2688 0 0-1.3824 50.048 0C838.3488 483.2512 881.28 438.7328 881.28 384.0256L881.28 384.0256zM881.28 384.0256M518.8608 327.9616c-33.5104 0-60.672-28.0064-60.672-62.5664 0-23.1168 12.2368-43.3408 30.336-54.1696l0-102.1952c0-17.2544 13.568-31.3088 30.336-31.3088 16.7424 0 30.336 14.0544 30.336 31.3088L549.1968 211.2c18.0992 10.8288 30.3104 31.0272 30.3104 54.1696C579.456 299.9296 552.32 327.9616 518.8608 327.9616L518.8608 327.9616zM518.8608 327.9616"  horiz-adv-x="1024" />

    
    <glyph glyph-name="bofang1" unicode="&#58894;" d="M882.734114 436.852742l0.024559 0.024559L244.016061 874.87282l-0.199545-0.188288C230.582097 887.251755 212.62819 894.985904 192.840518 894.985904c-40.704051 0-73.699536-32.66905-73.699536-72.996524 0-22.148439-0.954745-65.513086 0-64.572668l0-373.422851 0-393.071354c0-0.325411 0-25.249057 0-44.935422 0-40.302915 32.995485-72.972988 73.699536-72.972988 19.862373 0 37.892005 7.78429 51.125401 20.466124l0.050142-0.025583 638.742613 437.982216-0.024559 0.038886c13.886265 13.270235 22.549575 31.889291 22.549575 52.531424 0 0.050142 0 0.088004 0 0.150426 0 0.050142 0 0.11154 0 0.149403C905.28369 404.951171 896.620379 423.58353 882.734114 436.852742z"  horiz-adv-x="1024" />

    
    <glyph glyph-name="xiaoxi" unicode="&#58946;" d="M926.590722 130.55549c-1.202584 1.803876-34.273635 48.103347-67.945978 111.840282-30.665884 58.325308-67.344686 143.708749-67.344686 215.86377 0 81.174398-15.633588 149.721668-46.900763 203.837933 0 0 0 0 0 0 0 0.601292-52.31239 86.586025-134.689372 115.448033l0 19.842631C609.709924 852.105696 565.815619 896 511.699354 896c-54.116265 0-98.01057-43.894304-98.01057-98.611861l0-24.051674-6.012918-2.405167c-50.508514-18.640047-92.598943-53.514974-122.663535-99.814445-35.476218-55.318849-52.913682-127.47387-52.913682-213.458602 0-139.499706-133.486788-326.501468-135.290664-328.305344-4.209043-6.012918-6.012918-13.829712-4.209043-21.646506 1.803876-7.215502 6.61421-13.829712 13.22842-17.437463 4.810335-2.405167 117.8532-63.135643 258.55549-93.200235l5.411627-1.202584 1.803876-5.411627c13.829712-43.894304 40.286553-79.370523 75.16148-100.415737 39.685261-24.051674 90.193776-24.051674 129.879037 0 34.874927 21.045214 61.331767 56.521433 75.762772 100.415737l1.803876 5.411627 5.411627 1.202584c138.297123 30.064592 246.529654 87.788608 258.55549 93.801527 6.61421 3.607751 11.424545 9.620669 13.22842 17.437463C932.603641 116.725778 930.799765 124.542572 926.590722 130.55549zM466.602466 797.98943c0 27.058133 24.051674 48.704639 51.711098 45.096888 22.84909-3.607751 38.482678-25.254257 38.482678-48.103347l0-8.418086L530.940693 787.767469c-2.405167 0-4.810335 0-6.61421 0l-24.051674 0c-7.215502 0-15.032296-0.601292-22.84909-1.202584l-10.221961-0.601292L467.203758 797.98943zM584.455666-30.590722c-18.640047-27.659425-45.096888-43.894304-72.756312-43.894304-27.659425 0-54.116265 16.23488-72.756312 43.894304l-11.424545 16.836171 19.842631-1.803876c42.69172-4.209043 85.383441-4.209043 128.075161 0l19.842631 1.803876L584.455666-30.590722z"  horiz-adv-x="1024" />

    
    <glyph glyph-name="tixing" unicode="&#58905;" d="M916.790099 159.631533C853.372585 214.686673 808.045105 360.908755 808.045105 532.661677 808.045105 662.670994 724.762686 772.917801 608.918208 813.261989 601.101948 860.159547 560.75776 895.998293 511.812274 895.998293 462.866787 895.998293 422.522599 860.159547 414.706338 813.261989 298.86186 772.917801 215.579442 662.670994 215.579442 532.661677 215.579442 360.942887 170.286093 214.720805 106.834448 159.665665 71.405288 128.912608 51.028401 84.233639 51.028401 37.199551 51.028401-17.548399 95.22952-61.92018 149.772678-61.92018L445.971378-61.92018C445.971378-116.633998 457.269116-127.965868 511.812274-127.965868 566.355431-127.965868 577.653169-116.633998 577.653169-61.92018L873.851868-61.92018C928.395026-61.92018 972.596146-17.548399 972.596146 37.199551 972.596146 84.199506 952.253391 128.878476 916.790099 159.631533ZM187.556956 8.528555C127.996373 8.528555 124.753821 72.76524 138.47494 84.711488 226.638255 161.201611 281.420337 332.852137 281.420337 532.661677 281.420337 641.952785 402.93075 763.872784 511.812274 763.872784 620.693796 763.872784 742.20421 641.952785 742.20421 532.661677 742.20421 332.852137 796.986292 161.167479 885.149607 84.677356 898.904858 72.76524 906.004343 8.528555 836.067591 8.528555L187.556956 8.528555Z"  horiz-adv-x="1024" />

    
    <glyph glyph-name="jinggao" unicode="&#58884;" d="M597.333333 776.533333c0-4.266667 8.533333-12.8 21.333334-34.133333s25.6-42.666667 42.666666-76.8 38.4-64 59.733334-102.4c21.333333-38.4 46.933333-76.8 68.266666-115.2 21.333333-38.4 46.933333-81.066667 68.266667-119.466667 21.333333-38.4 42.666667-76.8 64-106.666666 17.066667-34.133333 34.133333-59.733333 51.2-85.333334s21.333333-38.4 29.866667-46.933333c8.533333-17.066667 17.066667-34.133333 17.066666-51.2 4.266667-17.066667 0-29.866667-4.266666-46.933333s-12.8-25.6-21.333334-34.133334c-12.8-8.533333-25.6-12.8-42.666666-12.8H89.6c-25.6 0-46.933333 4.266667-59.733333 12.8-12.8 8.533333-21.333333 21.333333-25.6 34.133334-4.266667 12.8-4.266667 29.866667 0 42.666666 4.266667 17.066667 8.533333 29.866667 21.333333 46.933334 4.266667 8.533333 12.8 21.333333 25.6 46.933333 12.8 21.333333 29.866667 51.2 51.2 81.066667 21.333333 34.133333 42.666667 68.266667 64 106.666666 21.333333 38.4 46.933333 81.066667 72.533333 119.466667s46.933333 81.066667 68.266667 119.466667c21.333333 38.4 42.666667 72.533333 59.733333 102.4 17.066667 29.866667 34.133333 55.466667 46.933334 76.8l21.333333 34.133333c8.533333 12.8 21.333333 25.6 38.4 34.133333 17.066667 8.533333 29.866667 12.8 46.933333 12.8s29.866667-4.266667 46.933334-8.533333c8.533333-4.266667 21.333333-17.066667 29.866666-29.866667z m-25.6-196.266666c0 8.533333 0 17.066667-4.266666 21.333333-4.266667 8.533333-8.533333 12.8-12.8 17.066667-4.266667 4.266667-12.8 8.533333-21.333334 12.8s-17.066667 8.533333-25.6 8.533333c-17.066667 0-29.866667-4.266667-42.666666-17.066667s-21.333333-25.6-21.333334-42.666666v-264.533334c0-17.066667 8.533333-29.866667 21.333334-42.666666s25.6-17.066667 42.666666-17.066667 29.866667 4.266667 42.666667 17.066667c12.8 12.8 21.333333 25.6 21.333333 42.666666v264.533334z m-64-384c-17.066667 0-34.133333-4.266667-42.666666-17.066667s-17.066667-25.6-17.066667-42.666667 4.266667-34.133333 17.066667-42.666666c12.8-12.8 25.6-17.066667 42.666666-17.066667s34.133333 4.266667 42.666667 17.066667c12.8 12.8 17.066667 25.6 17.066667 42.666666s-4.266667 34.133333-17.066667 42.666667c-8.533333 12.8-25.6 17.066667-42.666667 17.066667z"  horiz-adv-x="1024" />

    
    <glyph glyph-name="shanchushangwu103401" unicode="&#59216;" d="M1011.2 761.6h-608c-3.2 0-3.2 0-6.4-3.2L3.2 393.6v-3.2s0-3.2-3.2-3.2V377.6s0-3.2 3.2-3.2v-3.2l393.6-364.8c3.2-3.2 3.2-3.2 6.4-3.2h608c6.4 0 12.8 3.2 12.8 12.8V748.8c0 9.6-3.2 12.8-12.8 12.8zM1001.6 384v-352H409.6L28.8 384 409.6 736h592v-352zM499.2 230.4l144 140.8 140.8-140.8 16 16-140.8 140.8 140.8 144-16 16-140.8-144-144 144-16-16 144-144-144-140.8z"  horiz-adv-x="1024" />

    
    <glyph glyph-name="zhengque" unicode="&#59038;" d="M887.254 542.257c-20.511 48.423-49.759 91.872-87.139 129.251s-80.828 66.628-129.251 87.139c-50.123 21.238-103.402 31.918-158.257 31.918s-108.134-10.801-158.257-31.918c-48.423-20.511-91.872-49.759-129.251-87.139-37.379-37.379-66.628-80.828-87.139-129.251-21.238-50.123-31.918-103.402-31.918-158.257s10.801-108.134 31.918-158.257c20.511-48.423 49.759-91.872 87.139-129.251 37.379-37.379 80.828-66.628 129.251-87.139 50.123-21.238 103.402-31.918 158.257-31.918s108.134 10.801 158.257 31.918c48.423 20.511 91.872 49.759 129.251 87.139 37.379 37.379 66.628 80.828 87.139 129.251 21.238 50.123 31.918 103.402 31.918 158.257s-10.801 108.134-31.918 158.257zM740.405 494.077l-280.227-280.227c-11.286-11.286-29.855-11.286-41.142 0l-143.209 143.209c-11.286 11.286-11.286 29.855 0 41.142 11.286 11.286 29.855 11.286 41.142 0l122.576-122.576 259.596 259.596c11.286 11.286 29.855 11.286 41.142 0 11.408-11.286 11.408-29.733 0.122-41.142z"  horiz-adv-x="1024" />

    
    <glyph glyph-name="APP" unicode="&#58885;" d="M503.808 469.504V394.24h21.504c29.184 0 43.52 12.8 43.52 37.888 0 24.576-14.336 37.376-43.52 37.376h-21.504zM721.92 469.504h-22.016V394.24h21.504c29.184 0 43.52 12.8 43.52 37.888 0 24.576-14.336 37.376-43.008 37.376zM304.64 467.456h-1.536c-0.512-6.656-2.048-13.312-4.096-19.456l-26.624-81.408h61.952l-26.624 80.896c-1.024 5.12-2.048 11.776-3.072 19.968zM793.088 566.784v209.92c0 30.72-25.088 55.808-55.808 55.808H289.28c-30.72 0-55.808-25.088-55.808-55.808v-209.92H129.024v-349.696h104.448v-223.744c0-30.72 25.088-55.808 55.808-55.808H737.28c30.72 0 55.808 25.088 55.808 55.808v223.744h103.424V566.784h-103.424zM737.28 762.88v-196.096H289.28V762.88H737.28z m-116.224-328.704c0-24.064-8.704-43.008-26.112-57.344-17.408-14.336-39.424-21.504-65.536-20.48h-25.6v-81.408h-49.664V507.904h80.384c57.856 0 86.528-24.576 86.528-73.728z m-358.912-105.984l-16.896-53.248H190.976L276.48 507.904h58.368l83.456-232.96H364.032l-17.408 53.248H262.144z m250.88-363.52c-15.36 0-28.16 12.288-28.16 28.16 0 15.36 12.8 28.16 28.16 28.16s28.16-12.288 28.16-28.16c0-15.36-12.288-28.16-28.16-28.16z m-223.744 84.48v167.936H737.28v-167.936H289.28z m501.76 327.68c-17.408-14.336-39.424-21.504-65.536-20.48h-25.6v-81.408H650.24V507.904h80.384c57.856 0 87.04-24.576 87.04-73.728-0.512-24.064-9.216-43.008-26.624-57.344z"  horiz-adv-x="1024" />

    
    <glyph glyph-name="zhankai" unicode="&#58903;" d="M964.0768 411.456l-442.752-361.088-460.8 378.56a37.376 37.376 0 0 1-51.648-4.352 34.944 34.944 0 0 1-8.64-23.04c0-10.112 4.416-20.224 13.056-27.392l484.352-397.824a37.376 37.376 0 0 1 47.104 0l466.368 380.16a35.2 35.2 0 0 1 4.608 50.368 37.312 37.312 0 0 1-51.648 4.608zM497.5808 339.072a37.376 37.376 0 0 1 47.104-0.128l466.368 380.352a35.136 35.136 0 0 1 4.608 50.304 37.248 37.248 0 0 1-51.648 4.48L521.3248 413.056l-460.8 378.496a37.248 37.248 0 0 1-51.648-4.288 35.008 35.008 0 0 1 4.416-50.368l484.288-397.824z"  horiz-adv-x="1024" />

    
    <glyph glyph-name="securityCode-b" unicode="&#58893;" d="M963.801169 677.829242a72.850542 72.850542 0 0 1-57.513586 63.903984 1357.959666 1357.959666 0 0 0-185.960594 42.815669A690.80207 690.80207 0 0 0 554.17663 881.682951a76.045741 76.045741 0 0 1-88.826539 0 435.825173 435.825173 0 0 0-167.428438-96.495016 624.341926 624.341926 0 0 0-180.848276-44.732789 67.738223 67.738223 0 0 1-56.874546-63.903984S58.281712 516.152161 58.281712 374.924356c0-255.615937 301.626806-502.924356 452.440208-502.924356s406.42934 174.457877 447.32789 499.090117c10.224637 191.711953 3.195199 306.100085 3.195199 306.100085zM799.567929 480.36593l-315.046642-297.153527a42.815669 42.815669 0 0 0-52.401267-5.112318l-8.307518 7.029438L249.993665 365.977798a42.815669 42.815669 0 0 0 63.903984 58.791666L457.042574 274.595101l283.73369 268.396734a42.815669 42.815669 0 1 0 58.791665-63.903984"  horiz-adv-x="1024" />

    
    <glyph glyph-name="xia" unicode="&#58945;" d="M514.56 10.239999990000001L978.432 752.64l-463.872-222.72-463.872 222.72L514.56 10.239999990000001z"  horiz-adv-x="1024" />

    
    <glyph glyph-name="dengpao" unicode="&#58886;" d="M512 896A352 352 0 0 1 160 544c0-128 118.08-265.6 160-385.6C384-20.8 377.92-128 512-128s128 106.56 192 285.44C746.24 277.76 864 416 864 544A352 352 0 0 1 512 896z m82.88-869.76l-160-19.84c-5.76 16.32-11.84 35.52-19.2 60.48l198.08 24.64L608 64c-5.76-13.76-9.6-26.24-13.12-37.76z m-187.2 72.64Q398.72 128 387.84 160h248.64c-3.84-11.52-8-23.04-11.2-33.92zM512-64a55.68 55.68 0 0 0-64 40l135.68 16.96C564.16-59.84 549.76-64 512-64z m149.44 288H362.88c-16 34.56-35.2 69.12-54.08 103.04C267.2 401.6 224 480 224 544a288 288 0 0 0 576 0c0-64-43.2-142.4-85.12-217.28-18.56-33.92-37.44-68.48-53.44-102.72zM512 736a192 192 0 0 1-192-192 16 16 0 0 1 32 0 160 160 0 0 0 160 160 16 16 0 0 1 0 32z"  horiz-adv-x="1024" />

    
    <glyph glyph-name="shezhi" unicode="&#58970;" d="M201.6256 563.2c-32.8704-56.8832-86.784-95.7952-144.6912-106.3936a464.5888 464.5888 0 0 1 0-145.6128c57.856-10.5984 111.8208-49.5104 144.6912-106.3936 32.8192-56.832 39.5776-123.0336 19.7632-178.432a460.2368 460.2368 0 0 1 126.1056-72.96C385.536-1.6896 446.3104 25.6 512 25.6c65.7408 0 126.4128-27.2896 164.5056-72.192a460.2368 460.2368 0 0 1 126.1056 72.96c-19.8144 55.3984-13.056 121.5488 19.7632 178.432 32.8704 56.8832 86.784 95.7952 144.6912 106.3936a464.5888 464.5888 0 0 1 0 145.6128c-57.856 10.5984-111.8208 49.5104-144.6912 106.3936-32.8192 56.832-39.5776 123.0336-19.7632 178.432a460.2368 460.2368 0 0 1-126.1056 72.96C638.464 769.6896 577.6896 742.4 512 742.4c-65.7408 0-126.4128 27.2896-164.5056 72.192a460.2368 460.2368 0 0 1-126.1056-72.96c19.8144-55.3984 13.056-121.5488-19.7632-178.432z m-43.6224 190.72A511.488 511.488 0 0 0 368.5888 875.6224C390.7584 827.648 446.6176 793.6 512 793.6c65.3824 0 121.2416 34.048 143.36 82.0224a511.488 511.488 0 0 0 210.6368-121.7024c-30.4128-43.2128-31.9488-108.544 0.7168-165.12 32.7168-56.6272 90.112-87.9616 142.7456-83.1488 9.5232-39.0144 14.5408-79.7184 14.5408-121.6512s-5.0176-82.6368-14.5408-121.6512c-52.6336 4.8128-110.08-26.5216-142.7456-83.1488-32.6656-56.576-31.1296-121.9072-0.7168-165.12a511.488 511.488 0 0 0-210.5856-121.7024C633.2416-59.648 577.3824-25.6 512-25.6c-65.3824 0-121.2416-34.048-143.36-82.0224a511.488 511.488 0 0 0-210.6368 121.7024c30.4128 43.2128 31.9488 108.544-0.7168 165.12-32.7168 56.6272-90.112 87.9616-142.7456 83.1488A513.2288 513.2288 0 0 0 0 384c0 41.9328 5.0176 82.6368 14.5408 121.6512 52.6336-4.8128 110.08 26.5216 142.7456 83.1488 32.6656 56.576 31.1296 121.9072 0.7168 165.12zM512 204.8a179.2 179.2 0 1 0 0 358.4 179.2 179.2 0 0 0 0-358.4z m0 51.2a128 128 0 1 1 0 256 128 128 0 0 1 0-256z"  horiz-adv-x="1024" />

    
    <glyph glyph-name="liwu" unicode="&#58888;" d="M889.631 607.266h-65.524c11.533 18.985 18.356 41.395 18.356 65.555 0 67.998-52.819 121.317-117.921 123.119-42.539 1.177-92.219-31.459-117.921-47.168l-103.544-64.408-62.382 62.385c-63.378 53.914-89.568 54.961-140.668 49.192-64.715-7.307-117.921-52.795-117.921-117.921 0-26.657 9.092-51.034 24.027-70.753h-71.196c-39.074 0-70.753-31.676-70.753-70.753v-70.752c0-30.755 19.661-56.854 47.071-66.605v-41.574h0.097v-316.337c0-39.074 31.678-70.752 70.753-70.752h660.357c39.074 0 70.752 31.678 70.752 70.752V399.12c27.461 9.723 47.168 35.849 47.168 66.641v70.752c0.001 39.077-31.677 70.753-70.751 70.753z m-636.773 70.753c0.486 23.718 27.564 49.32 70.753 47.168 48.78-2.43 85.752-47.168 85.752-47.168l70.753-70.753H284.089s-31.948 35.751-31.231 70.753zM488.7 41.245H244.478c-56.757 0.001-61.994 5.238-62.372 62.372v291.39H488.7v-353.762z m0 424.516H158.521c-13.025 0-23.584 10.559-23.584 23.584v23.584c0 13.025 10.559 23.584 23.584 23.584H488.7v-70.752z m64.406 168.572s113.832 83.054 171.436 87.736c25.966 2.11 47.187-21.535 47.168-49.248-0.025-37.136-25.141-65.555-25.141-65.555h-190.31c-1.304 11.41-3.153 27.067-3.153 27.067z m289.357-530.715c-0.074-59.23-7.405-62.371-62.372-62.372H559.452V395.008h283.01v-291.39z m47.168 385.727c0-13.025-10.559-23.584-23.584-23.584H559.452v70.752h306.594c13.026 0 23.584-10.559 23.584-23.584v-23.584z"  horiz-adv-x="1024" />

    
    <glyph glyph-name="zhankai1" unicode="&#58880;" d="M13.888 342.72L511.68 840.512 1010.176 342.01599998999995l-45.248-45.24799999-453.248 453.248-452.544-452.67200001zM13.888-20.73599999999999L511.68 476.99200001 1010.176-21.50400000000002l-45.248-45.248-453.248 453.24800001-452.544-452.48000001z"  horiz-adv-x="1024" />

    
    <glyph glyph-name="xinxi" unicode="&#58896;" d="M950.9 786.3H73.1C32.9 786.3 0 753.4 0 713.1v-658.3c0-40.2 32.9-73.1 73.1-73.1h877.7c40.2 0 73.1 32.9 73.1 73.1V713.1c0.1 40.3-32.8 73.2-73 73.2zM329.1 347.4c0-20.1-16.5-36.6-36.6-36.6h-73.1c-20.1 0-36.6 16.5-36.6 36.6v73.1c0 20.1 16.5 36.6 36.6 36.6h73.1c20.1 0 36.6-16.5 36.6-36.6v-73.1z m256 0c0-20.1-16.5-36.6-36.6-36.6h-73.1c-20.1 0-36.6 16.5-36.6 36.6v73.1c0 20.1 16.5 36.6 36.6 36.6h73.1c20.1 0 36.6-16.5 36.6-36.6v-73.1z m256 0c0-20.1-16.5-36.6-36.6-36.6h-73.1c-20.1 0-36.6 16.5-36.6 36.6v73.1c0 20.1 16.5 36.6 36.6 36.6h73.1c20.1 0 36.6-16.5 36.6-36.6v-73.1z"  horiz-adv-x="1024" />

    
    <glyph glyph-name="yidongduan-" unicode="&#58906;" d="M204.31 399.8l0.16 352.44 64.74 61.47 64-61.47-0.1-281.61z m0.5-384l-0.24 352.79 129.14-61.46-0.13-291.33-63.7-61.12z m83.91 817.7L355.1 896h312.51l65.63-62.5-65.36-59.72h-312.5z m0.41-899l66.79 59.73h312.87l64.86-59.73-64.95-62.5H356.2z m399.54 536.13l0.11 281.61 65.1 61.47 63.66-61.47 0.2-352.44z m0.45-454.87l0.14 291.33L818 368.54999999999995l1.69-352.79-65.13-61.12z"  horiz-adv-x="1024" />

    
    <glyph glyph-name="yidongduan-1" unicode="&#58907;" d="M690.1 760.62l59.35 57.06 69.11-65.58-0.75-351.63-127.17 70.67-0.54 289.48zM690.64 299.16999999999996l127.17 70.68 0.75-351.63-69.11-65.58-59.35 57.06 0.54 289.47zM667.97-5.590000000000032l66.42-63.84-60.43-58.1H205.44l128.45 121.94h334.08zM333.89 773.58L205.44 895.53h468.52l60.43-58.1-66.42-63.85H333.89zM356.21 328.07000000000005l-120.19 56.81L356.5 451.4h311.79l120.58-66.52-120.51-56.81H356.21z"  horiz-adv-x="1024" />

    
    <glyph glyph-name="shoujihao" unicode="&#59456;" d="M285.774058 890.751473h452.453931c76.508358 0 139.100803-62.600632 139.100803-139.107967v-735.287012c0-76.513475-62.592445-139.106943-139.100803-139.106944h-452.453931c-76.506312 0-139.103873 62.593468-139.103874 139.106944V751.643506c0.001023 76.506312 62.597562 139.107967 139.103874 139.107967z m226.230035-817.666067c-32.470464 0-58.804173-26.324499-58.804173-58.798033 0-32.475581 26.332686-58.80008 58.804173-58.80008 32.466371 0 58.799057 26.324499 58.799057 58.80008 0 32.473534-26.332686 58.798033-58.799057 58.798033zM268.097502 748.7373230000001c-35.972211 0-65.402438-29.425111-65.402439-65.397322v-498.510805c0-35.971188 29.430227-65.405508 65.402439-65.405508h487.80602c35.972211 0 65.405508 29.434321 65.405508 65.405508V683.340001c0 35.972211-29.433297 65.397322-65.405508 65.397322H268.097502z"  horiz-adv-x="1024" />

    
    <glyph glyph-name="kongkuang" unicode="&#58920;" d="M759.19679728 672.37419227h-494.40683648c-11.37526406 0-21.04225159-3.97935584-29.1333884-12.08373459-8.01168158-7.96533302-12.08373458-17.71839708-12.08373456-29.12014573v-494.34062391c0-11.40174865 4.06543166-21.15481271 12.08373456-29.12014573 8.09113608-8.10437873 17.75812433-12.2227803 29.1333884-12.2227803h494.40683648c11.36864273 0 21.05549423 4.11840156 29.13338766 12.2227803 8.0447875 7.96533302 12.08373458 17.71839708 12.08373458 29.12014573V631.1703119599999c0 11.40174865-4.03894707 21.15481271-12.09035591 29.12014572-8.07789413 8.10437873-17.75812433 12.08373458-29.12676633 12.08373459M264.7899608 754.78857422h494.40683647c34.08606424 0 63.24593648-11.95131019 87.3736784-36.1254014 24.1476059-24.16746987 36.21809854-53.29423622 36.21809855-87.35381514v-494.47304831c0-34.07282158-12.07049265-63.32539169-36.21809855-87.49948219-24.12774191-24.03504477-53.28761489-36.1254014-87.3736784-36.1254014h-494.40683647c-34.08606424 0-63.23269456 12.09035591-87.37367914 36.1254014C153.26205445 73.50429634 141.21142578 102.77010911000002 141.21142578 136.82968803999995V631.30273635c0 34.06620026 12.05724999 63.18634599 36.20485588 87.36043646C201.55726623 742.83726403 230.70389656 754.78857422 264.7899608 754.78857422"  horiz-adv-x="1024" />

    
    <glyph glyph-name="zhifeiji" unicode="&#59349;" d="M899.6 779c9.9-7.1 13.8-16.7 12-28.5L797.3 64.8c-1.5-8.6-6.3-15.3-14.3-20.1-4.1-2.3-8.8-3.6-13.8-3.6-3.3 0-6.9 0.8-10.7 2.3L556.3 126 448.2-5.8c-5.4-6.9-12.7-10.2-21.9-10.2-3.8 0-7.1 0.6-9.9 1.8-5.6 2.1-10.2 5.5-13.6 10.5-3.4 4.9-5.2 10.3-5.2 16.3V168.3l385.7 472.8-477.2-413-176.3 72.3c-11 4.1-17 12.3-17.8 24.6-0.6 11.9 4.1 20.7 14.3 26.4L869.1 780c4.5 2.7 9.2 4 14.3 4 6 0 11.4-1.7 16.2-5z"  horiz-adv-x="1024" />

    
    <glyph glyph-name="qita" unicode="&#58882;" d="M512 896a512 512 0 1 1 512-512A512.62 512.62 0 0 1 512 896z m0-930.91A418.91 418.91 0 1 0 930.91 384 419.53 419.53 0 0 0 512-34.91zM644.81 446.06h88.746v-124.12H644.81z m-176.873 0h88.747v-124.12h-88.747z m-177.493 0h88.746v-124.12h-88.746z"  horiz-adv-x="1024" />

    
    <glyph glyph-name="kefu" unicode="&#58897;" d="M798.758 522.29h48.743c-24.974 62.793-66.801 115.811-119.227 154.443-59.578 43.906-132.905 69.244-210.781 69.244-77.877 0-151.202-25.338-210.781-69.244-52.428-38.633-94.252-91.65-119.226-154.443h36.649c13.824 0 26.473-5.69 35.683-14.855l0.049-0.057 0.055-0.047c9.179-9.209 14.857-21.853 14.857-35.683v-261.945c0-13.838-5.69-26.472-14.857-35.684l-0.055-0.044-0.049-0.058c-9.21-9.179-21.854-14.854-35.683-14.854h-59.029c-30.113 0-57.505 12.332-77.369 32.188l-0.102 0.102c-19.852 19.864-32.188 47.255-32.188 77.363V412.625c0 30.186 12.331 57.607 32.194 77.471l0.053-0.053c12.058 12.052 26.866 21.333 43.356 26.781 26.933 82.614 78.645 152.116 145.341 201.27 68.221 50.273 152.092 79.282 241.101 79.282 89.004 0 172.881-29.008 241.102-79.282 68.225-50.279 120.78-121.851 147.162-206.96a110.937 110.937 0 0 0 29.441-21.09l0.053 0.053c19.864-19.864 32.196-47.285 32.196-77.471v-143.909c0-30.108-12.336-57.499-32.188-77.363l-0.102-0.102c-19.864-19.855-47.259-32.188-77.371-32.188h-16.381l6.668-4.748c-38.188-53.37-88.051-95.872-144.725-125-56.787-29.189-120.37-45.037-185.856-45.037l-2.038 0.004c-8.404-8.768-20.244-14.229-33.354-14.229-25.525 0-46.211 20.69-46.211 46.213s20.686 46.209 46.211 46.209c18.563 0 34.57-10.949 41.918-26.74 55.055 1.005 108.27 14.709 155.845 39.162a355.11 355.11 0 0 1 107.883 85.391c-9.464 2.136-17.972 6.958-24.673 13.63l-0.049 0.058-0.053 0.044c-9.179 9.212-14.859 21.838-14.859 35.684V471.648c0 13.83 5.681 26.473 14.859 35.683l0.053 0.047 0.049 0.057c9.214 9.179 21.839 14.855 35.686 14.855zM223.38 470.892h-58.274c-16.059 0-30.619-6.528-41.125-17.034v-0.102c-10.571-10.57-17.136-25.136-17.136-41.131v-143.909c0-16.03 6.549-30.609 17.083-41.172 10.563-10.533 25.143-17.084 41.178-17.084h58.274V470.892z m634.407 0h-58.273V210.46h58.273c16.034 0 30.617 6.551 41.18 17.084 10.533 10.563 17.08 25.142 17.08 41.172V412.625c0 15.995-6.566 30.561-17.134 41.131v0.102c-10.505 10.505-25.067 17.034-41.126 17.034z"  horiz-adv-x="1024" />

    
    <glyph glyph-name="yiquxiao" unicode="&#58916;" d="M524.196931 428.823891l-168.35894 45.108755-19.52653-72.844902c-2.630608-9.833885 0.97103-16.066132 10.78726-18.696741l135.608748-36.334175c4.378462-1.165236 8.898165-0.617928 13.594419 1.624268 4.85515 2.807159 11.617049 18.237708 20.709421 45.638408l25.493951-16.189718c-12.888216-33.986049-23.022238-53.194787-30.084274-57.732145-8.156652-4.254877-18.043502-5.119976-29.113244-2.736539l-151.692535 40.642018c-23.48127 6.285212-31.637922 21.645141-25.070228 46.203371l37.870168 141.328998 28.389385-7.591689-9.657334-36.016384 139.439903-37.375826 16.666405 62.216538-179.269786 48.021845 7.309207 27.29477 208.188824-55.790086-31.28482-116.770766z m181.141226-94.454733l-7.591689-28.37173c-8.086031 0.406067-15.960202 0.476687-23.48127 0.723859l-12.446839-46.379922-27.824422 7.468103 10.893191 40.642017a1803.696983 1803.696983 0 0 0-86.827734 7.76824l0.441377 30.013654c7.856515-1.235856 15.448204-2.383437 23.110513-3.266192l42.760629 159.602016-18.820326 5.049355 7.167966 26.747462 132.060075-35.380801-4.095981-15.289308 107.5195-28.795452-6.956106-25.935328c-18.608465-46.485853-41.454152-84.815053-68.201613-114.775741a271.552943 271.552943 0 0 1 30.507996-68.43113l-25.087884-17.249023a339.066008 339.066008 0 0 0-27.647871 63.840806 236.578209 236.578209 0 0 0-62.393089-39.723953l-13.382558 27.577251a218.711258 218.711258 0 0 1 67.407134 44.226001c-8.598029 42.07208-9.039406 85.18581-1.165236 129.870844l-10.910845 2.91309 4.237221 15.836616-14.742 3.937085-38.08203-142.158787c8.156652-0.123586 16.030822-0.194206 23.569546-0.459032z m62.145917 112.904302c-6.196937-34.021359-6.744244-66.630311-2.189231-97.667959 18.961567 23.869682 35.345491 52.223757 48.83398 85.168155l-46.644749 12.499804z m-115.146498-110.979897l7.980101 29.731172-39.847539 10.681329-9.939816-37.110999c14.230003-1.465372 27.983318-2.524678 41.807254-3.301502z m-24.981953 66.065347l39.829884-10.681329 9.004096 33.562326-39.847539 10.68133-9.004096-33.562327z m15.854271 59.197518l39.847539-10.663675 9.004096 33.544672-39.847539 10.681329-9.004096-33.544671z m388.129504-31.461371l28.919038-7.76824-19.367634-72.297594 57.025941-15.271653-38.752923-144.612844c-5.773215-21.556865-19.067497-29.695862-39.264921-24.293404l-29.731172 7.980101v29.536965l27.36539-8.209616c7.626999-2.04799 12.817596 0.953375 14.936206 8.862855l4.766875 17.72571-85.415327 22.898652-15.289308-57.025941-28.636556 7.662309 47.598123 177.627863 56.478634-15.130412 19.367634 72.315249z m-67.089343-139.069146l-6.002731-22.368999 85.415327-22.880997 6.00273 22.368999-85.415326 22.880997z m91.841779 1.129926l6.055696 22.651481-85.397671 22.880997-6.073351-22.651481 85.415326-22.880997z m-73.021453 144.418638c6.179282-16.242683 11.352223-34.021359 16.242683-52.876995l-25.370365-5.190596a335.270163 335.270163 0 0 1-17.337298 53.177131l26.482635 4.908115z m120.337095-32.220539l20.268044-17.125438c-12.182012-14.883241-26.588566-28.265799-43.113731-40.800913l-18.749706 17.301988c16.383924 13.153042 30.260825 26.694496 41.595393 40.606708zM894.441828 316.449241l22.47493-16.542819c-22.457275-31.426061-45.497168-60.62758-69.578711-87.216146l-23.057547 18.749706a862.927845 862.927845 0 0 1 70.161328 85.009259z m18.114123 144.012571c15.183378-18.696741 27.418355-36.298866 36.934448-53.177131l-25.688156-15.059792c-7.750585 15.818961-19.914942 33.721222-36.704932 53.989266l25.45864 14.247657z m-24.752437-61.792815c14.088762-18.414259 25.42333-36.069349 34.074324-53.000581l-25.617536-14.777311c-7.273897 15.395239-18.5555 33.33281-33.897773 53.530234l25.440985 14.230002zM446.037847 80.153514l-49.893285 13.241317-1.694889-5.084666-10.186987 5.067011 0.97103 2.91309-202.821677 53.918646-1.871439-6.179282-81.478242 20.250389 2.471713 7.415138-26.482635 7.062036-1.447718-4.343153-10.186987 5.067011 0.706204 2.171576-10.893191 2.895435c-35.663282 10.134022-61.121922 50.670109-50.934935 91.188541l5.102321 10.134022 45.832614-15.201033-5.102321-10.134021c-5.084666-15.183378 0-25.335054 15.289308-30.402066l366.678569-96.237897h-5.084666l-15.289308-45.585443 10.186987-5.06701 15.271653 50.652453 117.141524-30.402065-15.271653-45.585443 45.832614-15.183378 15.271653 45.585443 86.580562-25.335054-15.271653-45.585443-25.476295 5.067011 15.289308 45.585443-45.832614 15.183377-15.289308-45.585442 45.832614-10.116367-187.038026 49.716734-1.394752-4.131291-10.186987 5.067011 0.670894 1.959715z m542.717473-102.858556l-34.091979 9.7103-15.289308-45.603098-122.22619 30.38441h5.102321l15.271653 45.603098-10.186987 5.067011-15.271653-45.603098-10.186987 5.067011 10.186987 40.536087-10.186987 5.067011-15.289308-45.603098h5.102321l-122.22619 30.402065h10.186987l15.271653 45.585443-10.186987 5.067011 56.019602-15.183378-15.271653-45.603098 25.45864-5.067011 15.289308 45.585443-20.373974 5.067011 188.432778-50.652454-15.289308-45.585443 10.186987-5.06701 15.289308 45.585443-10.186987 5.06701 54.501263-19.720735 1.518338 4.519703 188.432778-50.652454c15.271653-5.067011 25.45864 0 30.543306 15.183377l5.119976 15.218688 45.814959-20.268043-5.084666-10.134022c-10.186987-35.451421-50.934935-60.786476-91.665228-50.670109l-168.076459 45.603098 15.289308 45.585443-10.186987 5.067011-15.289308-45.585443h5.102321l-15.289308 5.067011 13.73566 40.959809zM323.158419 817.783183l-71.326565 20.250389L267.138817 883.63667l45.832615-15.201033-15.271654-45.585443 25.458641-5.067011z m478.717771-75.987508l-15.289308-45.603098-25.45864 5.067011 15.271653 45.603098 25.476295-5.067011zM226.373214 843.082928c-10.186987 5.067011-25.476295-5.067011-30.560961-15.183378l-45.832614 15.183378C160.166626 878.552004 200.914574 903.869403 241.662522 893.753037l15.271653-5.067011-15.271653-45.603098h-15.271653z m-45.850269-86.103875L129.62332 767.095419v-5.067011l25.45864 75.987509-5.084666-10.134022 45.832614-15.183378 5.084666 15.183378-20.373974-81.036864v10.134022z m-5.084666-15.201033l-5.102321-10.134022-45.832615 15.183378 5.102321 10.151677 45.832615-15.201033z m529.652706-25.335054l-61.121922 20.268043 45.850269-15.183377 15.271653 45.567787 35.663283-10.116366-20.39163 5.049355-15.271653-45.585442z m-61.121922 65.853486l-10.169332-45.585443L323.123108 817.747873l15.289309 45.603098L623.612744 787.363463l-15.289308-45.585443h15.289308l10.186987 45.585443 10.169332-5.067011z m264.826353-70.920497l-10.169332-45.585443-106.954536 30.38441 10.186987-5.049356 20.373974 45.585443 10.186987-5.067011-15.289308-45.585443 10.186987-5.067011 15.271653 45.585443h-10.169332l101.852216-25.335054-15.289308-45.585443 10.186987-5.067011 15.289308 45.585443 381.950222-101.304908-15.271653-45.585443-203.704431 55.719465 15.271653 45.585443-10.186987 5.067011-15.271653-45.585443-56.019602 15.183378 45.832614-10.116367 15.271654 45.585443-61.104268 15.183377-15.289308-45.585443-117.141524 30.402066 10.186988 45.585443-10.186988 5.067011z m397.239531-420.438319l5.102321 25.317399 45.832614-15.183377-40.747948-146.908006v5.067011l-45.832615 15.183377 15.289309 45.603099 45.832614-15.201033 20.373974 70.920497-45.832614 15.183378z m15.289308 60.786476l5.084666 15.183377 45.850269-15.183377-10.186987-35.469077 5.084666 20.268044-45.832614 15.183378z m-101.869871-379.937542l45.850269 167.176049 45.832615-15.183377-45.832615-167.193705-45.832614 15.201033z m45.850269 177.310071l5.084666 10.134022 45.832615-15.201033-5.084666-15.201032v5.06701l-45.832615 15.183378z m96.749895 445.773373c35.663282-10.134022 61.121922-50.670109 45.850269-91.188541L1382.428522 407.443576l-45.832614 15.183378v-5.049356l25.476295 101.304908c5.084666 15.183378 0 25.335054-15.289308 30.402065l15.289308 45.585443z m-1191.71859 126.639962l-10.169332-40.518432-45.85027 15.183378 10.186987 35.469076 45.832615-10.134022z m1166.25995-314.084055l45.832614-15.183377v5.067011l-5.084666-15.183378-45.832614 15.183378 5.084666 10.134021zM124.520998 554.369237l-15.271653-45.603098-45.832614 15.201033 15.271653 45.585443 45.832614-15.183378z m20.373975 70.920498l-15.271653-60.804131-45.832615 15.201033 15.271653 60.786475 45.832615-15.183377z m-35.663283-131.706973L53.247399 280.803614l-45.832614 15.183378L63.416731 508.748484l45.832614-15.183377z"  horiz-adv-x="1412" />

    
    <glyph glyph-name="jinru" unicode="&#58967;" d="M322.9 708.3L647 384 323 59.7c-17.2-17.3-17.2-45.5 0-62.8 17.2-17.3 45.5-17.3 62.7 0l355.4 355.7c17.2 17.3 17.2 45.5 0 62.8L385.7 771.1c-17.2 17.3-45.5 17.3-62.7 0-17.3-17.3-17.3-45.6-0.1-62.8z"  horiz-adv-x="1024" />

    
    <glyph glyph-name="liulan" unicode="&#59019;" d="M1025.005 385.83s-244.12 313.158-513.895 313.158C241.338 698.987 0.001 385.83 0.001 385.83s241.338-317.072 511.109-317.072c269.776 0 513.895 317.072 513.895 317.072M511.11 139.035c-197.228 0-369.518 183.627-421.662 247.108 52.144 61.202 224.434 247.103 421.662 247.103 197.232 0 369.527-183.628 421.665-247.103-52.143-63.481-224.433-247.108-421.665-247.108z m0 0M512.854 528.845c-79.342 0-145.089-65.742-145.089-145.093 0-79.346 65.747-145.089 145.089-145.089 79.346 0 145.088 65.743 145.088 145.089 0 79.352-65.742 145.093-145.088 145.093z m0-224.439c-43.07 0-77.075 34.01-77.075 77.079 0 43.074 34.005 77.084 77.075 77.084 43.078 0 77.079-34.01 77.079-77.084-0.001-43.069-34.001-77.079-77.079-77.079z m0 0"  horiz-adv-x="1025" />

    
    <glyph glyph-name="biji" unicode="&#58941;" d="M808.9 745.8H276c-43.1 0-78-35.9-78-80.3V102c0-44.4 34.9-80.3 78-80.3h527.3c11.6 0 20.9 9.4 20.9 20.9V730.5c0 8.4-6.9 15.3-15.3 15.3z m-521.5-44.2h154.5v-294.1l-64.2 47.9-10.9 8.2-11.1-7.9-68.3-49V701.6zM785 62H275.9s-39.7 7-38.9 40.3c0 20.1 17.5 40.2 38.9 40.2H785V62z"  horiz-adv-x="1024" />

    
    <glyph glyph-name="cha" unicode="&#59015;" d="M560.264533 384L512 432.264533l248.9344 248.9344 48.264533-48.264533L560.264533 384l248.9344-248.9344-48.264533-48.264533L512 335.735467l-248.9344-248.9344-48.264533 48.264533L463.735467 384 512 335.735467l-248.9344-248.9344-48.264533 48.264533L463.735467 384 214.801067 632.9344l48.264533 48.264533L512 432.264533l248.9344 248.9344 48.264533-48.264533z"  horiz-adv-x="1024" />

    
    <glyph glyph-name="shenfenzheng-tianchong" unicode="&#59187;" d="M896 768H128C73.6 768 32 726.4 32 672v-576c0-54.4 41.6-96 96-96h768c54.4 0 96 41.6 96 96V672c0 54.4-41.6 96-96 96z m-256-256h96c19.2 0 32-12.8 32-32s-12.8-32-32-32h-96c-19.2 0-32 12.8-32 32s12.8 32 32 32z m-188.8-320H179.2c-28.8 0-51.2 22.4-51.2 51.2 0 54.4 44.8 131.2 118.4 153.6-22.4 19.2-35.2 44.8-35.2 76.8C211.2 531.2 256 576 313.6 576c57.6 0 102.4-44.8 102.4-102.4 0-28.8-12.8-57.6-35.2-76.8 73.6-22.4 118.4-99.2 118.4-153.6 0-28.8-22.4-51.2-48-51.2zM864 288h-224c-19.2 0-32 12.8-32 32s12.8 32 32 32h224c19.2 0 32-12.8 32-32s-12.8-32-32-32z"  horiz-adv-x="1024" />

    
    <glyph glyph-name="mima1" unicode="&#58933;" d="M860.58 406.6c-0.09 47.06-29.76 88.04-72.49 101.63-16.6 5.3-33.82 6.09-51.12 5.3-7.68-0.35-12.01-0.71-11.12 10.95 2.12 28.52 2.47 57.39 1.23 86.09-4.06 94.48-70.11 174.13-163.18 198.41-88.3 23.04-182.87-15.72-233.64-93.86-40.62-62.34-35.23-130.94-31.97-201.58-11.92 0-22.69 0.26-33.38 0-56.25-1.5-101.1-46-101.37-102.16-0.53-117.88-0.62-235.75 0-353.63 0.35-57.31 44.94-104.2 101.9-104.54 165.29-1.06 330.68-0.97 495.97 0 55.01 0.35 98.9 46.71 99.16 101.89 0.45 117.15 0.36 234.33 0.01 351.5zM566.02 229.82c-8.65-6.53-11.3-12.72-11.04-22.87 0.62-25.78 0.44-51.66 0.18-77.44-0.44-29.76-17.31-47.68-43.97-47.24-25.7 0.35-41.77 18.01-42.21 46.8-0.26 15.1-0.44 30.11 0 45.21 0.8 26.23-0.09 48.39-23.75 69.58-25.52 22.95-25.96 57.83-10.95 89.88 15.54 33.03 42.91 48.39 72.4 50.51 42.12-0.44 75.76-25.34 87.33-59.96 11.47-34.51 1.06-72.48-27.99-94.47z m59.86 283.44c-37.35 0.71-74.7 0.27-112.05 0.27-38.06 0-76.2 0.79-114.26-0.35-14.84-0.45-17.75 4.68-17.22 18.1 1.06 22.96 0.09 46 0.35 68.96 0.8 71.88 57.39 128.65 128.48 129 71.17 0.35 128.65-55.8 130.15-127.68 0.53-24.46-0.71-48.92 0.35-73.29 0.54-12.88-4.23-15.18-15.8-15.01z"  horiz-adv-x="1024" />

    
    <glyph glyph-name="shuzi3" unicode="&#58902;" d="M257.5 397.4V706l53.7 53.5 53.7-53.5v-246.4l-107.4-62.2z m0-335.8V370.2l107.3-53.5v-255.1l-53.7-53.5-53.6 53.5zM282 383.8l100.8 59h260.1l101.2-58-101.2-49.4H382.8L282 383.8z m46.1 393.1l54.8 54.9h362.5L642.9 724.4H382.8l-54.7 52.5z m0-786.2l54.8 52.4H643l55.1-52.4-55.1-54.9H382.8l-54.7 54.9z m332.2 70.8V316.6l107.3 53.5v-308.6L714 8l-53.7 53.5z"  horiz-adv-x="1024" />

    
    <glyph glyph-name="shuzi4" unicode="&#58908;" d="M265.7 832.1h476.1L632.4 724.8H372.6L265.7 832.1zM651.6 460V706.4L759 814.7v-416.9L651.6 460z m0-417.2V316.6L759 370.1v-434.3l-107.4 107z"  horiz-adv-x="1024" />

    
    <glyph glyph-name="shuzi6" unicode="&#58909;" d="M257.5 397.4V706l53.7 53.5 53.7-53.5v-246.4l-107.4-62.2z m0-336v308L364.9 316v-254.6L311.2 8l-53.7 53.4z m24.5 322l100.8 59.3h260.1l101.2-58-101.2-49.4H382.8L282 383.4z m46.1 393.5l54.8 54.9H643l55.1-54.9-55.1-52.4H382.8l-54.7 52.4z m0-786.2l54.8 52.4H643l55.1-52.4-55.1-54.9H382.8l-54.7 54.9z m332.2 468.6V705.7l53.7 53.5 53.7-53.5v-308.6l-107.4 62.2z m0-397.8V316.6l107.3 53.5v-308.6L714 8l-53.7 53.5z"  horiz-adv-x="1024" />

    
    <glyph glyph-name="shuzi7" unicode="&#58910;" d="M257.5 397.4V706l53.7 53.5 53.7-53.5v-255l-107.4-53.6z m22.4-461.6l102.9 107.3h260.1l54.8-52.4-54.8-54.9h-363z m2.1 448l100.8 59h260.1l101.2-58-101.2-49.4H382.8L282 383.8z m46.1 393.1l54.8 54.9H643l55.1-54.9-55.1-52.4H382.8l-54.7 52.4zM660.3 451V706l53.7 53.5 53.7-53.5v-308.6L660.3 451z m0-389.4V307.9l107.3 62.2v-308.6L714 8.1l-53.7 53.5z"  horiz-adv-x="1024" />

    
    <glyph glyph-name="biaoqian1" unicode="&#59011;" d="M640.832-106.88a64 64 0 0 0-90.496 0L55.68 387.712a64 64 0 0 0-18.496 39.616L2.176 824.448A64 64 0 0 0 71.552 893.824l397.12-35.072a64 64 0 0 0 39.616-18.496l494.592-494.592a64 64 0 0 0 0-90.496l-362.048-362.048zM113.344 438.72l482.24-482.24 343.936 343.936-482.24 482.24-377.28 33.28 33.28-377.216z m314.624 29.312a128 128 0 1 0-181.056 181.056 128 128 0 0 0 181.056-181.056z m-54.336 54.336a51.2 51.2 0 1 1-72.384 72.384 51.2 51.2 0 0 1 72.384-72.384z"  horiz-adv-x="1024" />

    
    <glyph glyph-name="shuzi" unicode="&#58898;" d="M662.528 896H361.472L301.056 835.584l60.416-60.416h301.056l60.16 60.416zM662.528 444.416H361.472L301.312 384l60.16-60.416h301.056l60.16 60.416zM662.528-7.168H361.472l-60.16-60.416L361.472-128h301.056l60.16 60.416zM782.848 473.6V745.472l-60.16 60.416-60.416-60.416V473.6l60.416-60.16zM361.472 20.224V292.096l-60.16 60.416L240.896 292.096v-271.872l60.416-60.16z"  horiz-adv-x="1024" />

    
    <glyph glyph-name="shuzi1" unicode="&#58899;" d="M782.848 473.6V835.584L722.688 896l-60.416-60.416V473.6l60.416-60.16zM782.848-67.84V292.096l-60.16 60.416-60.416-60.416v-359.936l60.416-60.16z"  horiz-adv-x="1024" />

    
    <glyph glyph-name="shuzi2" unicode="&#58900;" d="M662.656 444.416H361.6L301.44 384l60.16-60.416h301.056l60.16 60.416zM782.976 473.6l0.256 361.984L722.816 896l-60.416-60.416V473.6l60.416-60.16zM361.6 473.6V835.584L301.184 896 241.024 835.584 240.768 473.6l60.416-60.16zM782.976 292.096l-60.16 60.416-60.416-60.416v-359.936l60.416-60.16 60.416 60.16"  horiz-adv-x="1024" />

    
    <glyph glyph-name="queding" unicode="&#58901;" d="M397.568 212.906667l422.4 422.4a42.666667 42.666667 0 0 0 60.330667-60.373334L427.733333 122.368a42.666667 42.666667 0 0 0-60.330666 0l-181.034667 181.034667a42.666667 42.666667 0 0 0 60.330667 60.330666l150.869333-150.826666z"  horiz-adv-x="1024" />

    
    <glyph glyph-name="xia1" unicode="&#58889;" d="M509.44 757.76000001L45.568 15.360000000000014l463.872 222.72 463.872-222.72L509.44 757.76000001z"  horiz-adv-x="1024" />

    
    <glyph glyph-name="gonggao" unicode="&#59167;" d="M927.232 438.272h-172.544c-19.968 0-35.328-15.872-35.328-35.328v-11.264c0-19.968 15.872-35.328 35.328-35.328h172.544c19.968 0 35.328 15.872 35.328 35.328v11.264c0.512 19.456-15.36 35.328-35.328 35.328z m-400.896 306.176C472.576 701.44 359.936 641.536 279.04 583.68c-1.024-0.512-2.048-3.584-3.072-4.096-9.216-5.12-13.824-20.48-66.048-20.48H108.544c-26.112 0-41.984-12.288-41.984-39.424v-244.736c0-27.136 14.848-40.96 41.984-40.96h101.888c51.712 0 56.32-14.848 65.536-20.48 1.024-0.512 2.048-3.584 3.072-4.096 78.336-57.344 191.488-122.368 247.296-163.328 16.384-12.288 72.192-33.792 72.192 42.496V705.024c0 76.8-56.32 52.224-72.192 39.424zM711.68 647.68c9.216-15.872 27.136-20.48 40.448-9.216l142.336 119.808c13.312 11.264 16.384 33.28 7.68 49.664l-5.12 9.216c-9.216 15.872-27.136 20.48-40.448 9.216L714.24 706.56c-13.312-11.264-16.384-33.28-7.68-49.664l5.12-9.216z m45.568-518.144c-13.312 11.264-31.744 7.168-40.448-9.216l-5.12-9.216c-9.216-15.872-5.632-38.4 7.68-49.664l126.976-119.808c13.312-11.264 47.104-7.168 55.808 9.216l5.12 9.216c9.216 15.872 5.632 38.4-7.68 49.664l-142.336 119.808z"  horiz-adv-x="1024" />

    
    <glyph glyph-name="jiaoyijilu" unicode="&#59007;" d="M420.8 313.6V451.9c0 50.9 41.3 92.2 92.2 92.2h322.8V705.6c0 50.9-41.3 92.2-92.2 92.2H190.2c-50.9 0-92.2-41.3-92.2-92.2V60c0-50.9 41.3-92.2 92.2-92.2h553.3c50.9 0 92.2 41.3 92.2 92.2V221.4H513c-50.9 0-92.2 41.3-92.2 92.2z m461.1 184.5H513c-25.5 0-46.1-20.6-46.1-46.1v-138.3c0-25.5 20.6-46.1 46.1-46.1h368.9c25.5 0 46.1 20.6 46.1 46.1V451.9c0 25.5-20.6 46.2-46.1 46.2zM582.2 336.7c-25.5 0-46.1 20.6-46.1 46.1s20.6 46.1 46.1 46.1 46.1-20.6 46.1-46.1-20.7-46.1-46.1-46.1z"  horiz-adv-x="1024" />

    
    <glyph glyph-name="tupian" unicode="&#59165;" d="M905.769 807.788H120.796c-80.159 0-119.521-39.363-119.521-119.522v-631.373c0-80.153 39.362-119.51 119.521-119.51H905.77c80.154 0 119.511 39.357 119.511 119.51V688.266c0 80.159-39.357 119.522-119.511 119.522z m58.066-696.505c0-80.153-13.732-104.135-93.886-104.135H166.876c-80.159 0-104.156 23.982-104.156 104.135V633.871c0 80.16 23.997 104.157 104.156 104.157H859.7c80.154 0 104.136-23.998 104.136-104.157v-522.588zM185.6 549.76a104.32 104.32 0 1 1 208.64 0 104.32 104.32 0 1 1-208.64 0zM660.07 353.633l-38.917 38.917L427.52 198.922l-73.953 73.959-1.572-1.572-0.282 0.281L210.97 130.847l38.917-38.917 103.398 103.393 73.948-73.948 0.287 0.286 0.287-0.291 192.998 192.993L818.278 116.89l38.918 38.917-197.474 197.478z"  horiz-adv-x="1025" />

    
    <glyph glyph-name="checkbox-checked" unicode="&#58887;" d="M813.056 788.992H204.8a102.4 102.4 0 0 1-102.4-102.4V76.79999999999995a102.4 102.4 0 0 1 102.4-102.4h609.28a102.4 102.4 0 0 1 102.4 102.4V687.104a102.4 102.4 0 0 1-103.424 101.888z m-31.744-240.128L413.696 179.20000000000005a25.6 25.6 0 0 0-17.92-7.68 25.6 25.6 0 0 0-18.944 7.68L235.008 339.456a25.6 25.6 0 1 0 37.888 33.792L396.288 235.51999999999998l349.184 349.184a25.6 25.6 0 1 0 35.84-35.84z"  horiz-adv-x="1024" />

    
    <glyph glyph-name="changyongtubiao-xianxingdaochu-zhuanqu-" unicode="&#59146;" d="M726.4256 415.6928H542.72V599.3472a30.72 30.72 0 0 1-61.44 0v-183.6544H297.6256a30.72 30.72 0 1 1 0-61.44H481.28v-183.7056a30.72 30.72 0 0 1 61.44 0v183.7056h183.7056a30.72 30.72 0 0 1 0 61.44zM794.9824 667.9552a400.0256 400.0256 0 1 1 0-565.9648 400.6912 400.6912 0 0 1 0 565.9648z m-43.4688-522.5472a338.7392 338.7392 0 1 0 99.2256 239.5648 336.5376 336.5376 0 0 0-99.2256-239.5648z"  horiz-adv-x="1024" />

    
    <glyph glyph-name="shaixuan" unicode="&#58881;" d="M562.176-11.776c-13.312 0-25.6 3.072-37.376 9.216l-101.888 56.832c-25.088 13.312-40.448 39.424-40.448 68.096V445.952c0 4.608-2.56 9.728-6.144 12.288l-235.52 188.928-2.56 3.072c-22.016 22.016-27.136 54.784-14.848 83.456s39.424 46.08 70.656 46.08H829.44c30.72 0 58.368-17.92 71.168-46.08s7.168-60.416-13.824-83.456l-3.072-3.072L645.12 456.192c-3.584-3.072-5.632-7.68-5.632-12.288v-377.856c0.512-43.52-34.304-77.824-77.312-77.824zM181.248 693.248l234.496-187.392c18.432-14.848 29.184-36.864 29.184-60.416v-323.584c0-5.632 2.56-11.264 7.68-13.824l101.888-55.808c4.608-2.56 10.752-2.56 15.872 0 4.608 2.56 7.68 8.192 7.68 13.824V443.392c0 23.552 10.24 45.568 28.672 60.416l235.008 189.44c3.584 4.608 4.096 11.264 1.536 16.384s-7.68 8.704-13.824 8.704H194.048c-6.144 0-11.264-3.072-13.824-8.704-3.072-5.632-2.048-11.776 1.024-16.384zM876.032 371.712H701.44c-16.896 0-30.72 13.824-30.72 30.72s13.824 30.72 30.72 30.72h174.592c16.896 0 30.72-13.824 30.72-30.72 0.512-16.896-13.312-30.72-30.72-30.72z m0-115.712H701.44c-16.896 0-30.72 13.824-30.72 30.72s13.824 30.72 30.72 30.72h174.592c16.896 0 30.72-13.824 30.72-30.72 0.512-16.896-13.312-30.72-30.72-30.72z m0-115.2H701.44c-16.896 0-30.72 13.824-30.72 30.72s13.824 30.72 30.72 30.72h174.592c16.896 0 30.72-13.824 30.72-30.72s-13.312-30.72-30.72-30.72z"  horiz-adv-x="1024" />

    


  </font>
</defs>
</svg>
